<svg xmlns="http://www.w3.org/2000/svg" width="22" height="16.5" viewBox="0 0 22 16.5">
  <g id="abs_ic" transform="translate(0 -2.75)">
    <g id="Group_2197" data-name="Group 2197">
      <g id="Group_2196" data-name="Group 2196">
        <path id="Path_2068" data-name="Path 2068" d="M14.667,10.542a.458.458,0,0,1,0-.917h.917a.458.458,0,0,0,0-.917h-.917a1.375,1.375,0,1,0,0,2.75.458.458,0,1,1,0,.917H13.75a.458.458,0,0,0,0,.917h.917a1.375,1.375,0,1,0,0-2.75Z"/>
      </g>
    </g>
    <g id="Group_2199" data-name="Group 2199">
      <g id="Group_2198" data-name="Group 2198">
        <path id="Path_2069" data-name="Path 2069" d="M7.333,8.708a1.376,1.376,0,0,0-1.375,1.375v2.75a.458.458,0,0,0,.917,0v-.458h.917v.458a.458.458,0,0,0,.917,0v-2.75A1.377,1.377,0,0,0,7.333,8.708Zm.458,2.75H6.875V10.083a.458.458,0,0,1,.917,0v1.375Z"/>
      </g>
    </g>
    <g id="Group_2201" data-name="Group 2201">
      <g id="Group_2200" data-name="Group 2200">
        <path id="Path_2070" data-name="Path 2070" d="M12.375,10.083A1.377,1.377,0,0,0,11,8.708h-.917a.458.458,0,0,0-.458.458v3.667a.458.458,0,0,0,.458.458H11A1.374,1.374,0,0,0,12.024,11,1.37,1.37,0,0,0,12.375,10.083ZM11,12.375h-.458v-.917H11a.458.458,0,1,1,0,.917Zm0-1.833h-.458V9.625H11a.458.458,0,1,1,0,.917Z"/>
      </g>
    </g>
    <g id="Group_2203" data-name="Group 2203">
      <g id="Group_2202" data-name="Group 2202">
        <path id="Path_2071" data-name="Path 2071" d="M11,2.75A8.25,8.25,0,1,0,19.25,11,8.259,8.259,0,0,0,11,2.75Zm0,15.583A7.333,7.333,0,1,1,18.333,11,7.342,7.342,0,0,1,11,18.333Z"/>
      </g>
    </g>
    <g id="Group_2205" data-name="Group 2205">
      <g id="Group_2204" data-name="Group 2204">
        <path id="Path_2072" data-name="Path 2072" d="M3.867,3.566a.492.492,0,0,0,0-.676.445.445,0,0,0-.648,0,11.828,11.828,0,0,0,0,16.22.445.445,0,0,0,.648,0,.492.492,0,0,0,0-.676A10.842,10.842,0,0,1,3.867,3.566Z"/>
      </g>
    </g>
    <g id="Group_2207" data-name="Group 2207">
      <g id="Group_2206" data-name="Group 2206">
        <path id="Path_2073" data-name="Path 2073" d="M18.782,2.89a.445.445,0,0,0-.648,0,.492.492,0,0,0,0,.676,10.842,10.842,0,0,1,0,14.868.492.492,0,0,0,0,.676.445.445,0,0,0,.648,0A11.828,11.828,0,0,0,18.782,2.89Z"/>
      </g>
    </g>
  </g>
</svg>
