<svg id="ac_ic" xmlns="http://www.w3.org/2000/svg" width="22.609" height="21.199" viewBox="0 0 22.609 21.199">
  <g id="Group_511" data-name="Group 511" transform="translate(0)">
    <path id="air-filter" d="M22.142,4.523H21.091V4.362a.467.467,0,0,0-.467-.467H18.212a.467.467,0,0,0-.467.467v.162h-3.8L12.958,2l.088-.035A.467.467,0,1,0,12.7,1.1L7.222,3.255a.467.467,0,1,0,.341.869l.088-.035.194.494a8.872,8.872,0,1,0,9.9,8.813,8.782,8.782,0,0,0-.657-3.358h.657V10.2a.467.467,0,0,0,.467.467h2.413a.467.467,0,0,0,.467-.467v-.161h1.051a.467.467,0,0,0,.467-.467V4.99A.467.467,0,0,0,22.142,4.523ZM8.52,3.748l3.568-1.4.855,2.177H8.825ZM8.872,9.1h0a4.3,4.3,0,1,0,2.668.934h4.526a7.85,7.85,0,0,1,.744,3.358A7.938,7.938,0,1,1,8.872,5.457h8.872V9.1Zm1,4.292a1,1,0,1,1-1-1A1,1,0,0,1,9.87,13.4Zm-.53-1.874V10.07a3.327,3.327,0,0,1,.791.212L9.4,11.54Zm-.934,0-.065.018-.726-1.257a3.327,3.327,0,0,1,.791-.212v1.451Zm-1.6-.771.725,1.257-.048.048L6.228,11.33A3.388,3.388,0,0,1,6.806,10.751ZM5.759,12.138l1.257.726c-.006.022-.012.043-.018.065H5.547A3.33,3.33,0,0,1,5.759,12.138ZM7,13.863c.006.022.012.044.018.065l-1.257.726a3.332,3.332,0,0,1-.212-.791Zm.486.874.047.047L6.806,16.04a3.388,3.388,0,0,1-.579-.579Zm.856.515.065.018v1.451a3.327,3.327,0,0,1-.791-.212Zm1,.018.065-.018.726,1.257a3.327,3.327,0,0,1-.791.212V15.269Zm1.6.771-.725-1.256.048-.048,1.257.725A3.388,3.388,0,0,1,10.938,16.04Zm1.047-1.387-1.257-.726c.006-.022.012-.043.018-.065H12.2A3.33,3.33,0,0,1,11.985,14.654Zm-1.239-1.725c-.005-.022-.012-.044-.018-.065l1.257-.726a3.33,3.33,0,0,1,.212.791Zm-.486-.874-.048-.048.725-1.256a3.387,3.387,0,0,1,.579.579Zm9.9-2.323H18.679v-4.9h1.479ZM21.675,9.1h-.584V5.457h.584Z" transform="translate(0 -1.069)"/>
  </g>
</svg>
