<svg id="active_add_ic" xmlns="http://www.w3.org/2000/svg" xmlns:xlink="http://www.w3.org/1999/xlink" width="22" height="22" viewBox="0 0 22 22">
  <defs>
    <clipPath id="clip-path">
      <path id="path-1" d="M19.555,22H2.444A2.447,2.447,0,0,1,0,19.555V2.444A2.447,2.447,0,0,1,2.444,0H19.555A2.447,2.447,0,0,1,22,2.444V19.555A2.447,2.447,0,0,1,19.555,22ZM6.111,9.778a1.222,1.222,0,0,0,0,2.444H9.778v3.667a1.222,1.222,0,0,0,2.444,0V12.222h3.667a1.222,1.222,0,0,0,0-2.444H12.222V6.111a1.222,1.222,0,0,0-2.444,0V9.778Z" fill="#d3dce6"/>
    </clipPath>
  </defs>
  <path id="path-1-2" data-name="path-1" d="M19.555,22H2.444A2.447,2.447,0,0,1,0,19.555V2.444A2.447,2.447,0,0,1,2.444,0H19.555A2.447,2.447,0,0,1,22,2.444V19.555A2.447,2.447,0,0,1,19.555,22ZM6.111,9.778a1.222,1.222,0,0,0,0,2.444H9.778v3.667a1.222,1.222,0,0,0,2.444,0V12.222h3.667a1.222,1.222,0,0,0,0-2.444H12.222V6.111a1.222,1.222,0,0,0-2.444,0V9.778Z" fill="#10a8e5"/>
</svg>
