<svg id="add-subscription_ic" xmlns="http://www.w3.org/2000/svg" width="18.927" height="18.926" viewBox="0 0 18.927 18.926">
  <g id="Group_2439" data-name="Group 2439" transform="translate(0 0)">
    <path id="Path_2033" data-name="Path 2033" d="M17.85,1.077A3.546,3.546,0,0,0,15.246,0H3.68a3.546,3.546,0,0,0-2.6,1.076A3.547,3.547,0,0,0,0,3.681V15.247a3.554,3.554,0,0,0,1.076,2.6,3.533,3.533,0,0,0,2.6,1.084H15.247a3.688,3.688,0,0,0,3.68-3.68V3.681A3.548,3.548,0,0,0,17.85,1.077Zm-1.026,14.17a1.571,1.571,0,0,1-1.577,1.577H3.68A1.57,1.57,0,0,1,2.1,15.247V3.681A1.57,1.57,0,0,1,3.68,2.1H15.247a1.571,1.571,0,0,1,1.577,1.577Z" transform="translate(0 0)"/>
    <path id="Path_2034" data-name="Path 2034" d="M15.1,9.318H11.42V5.637a.506.506,0,0,0-.526-.526H9.843a.506.506,0,0,0-.526.526v3.68H5.637a.506.506,0,0,0-.526.526v1.051a.506.506,0,0,0,.526.526h3.68V15.1a.506.506,0,0,0,.526.525h1.051a.506.506,0,0,0,.526-.525V11.42H15.1a.506.506,0,0,0,.525-.526V9.843a.506.506,0,0,0-.525-.526Z" transform="translate(-0.905 -0.906)"/>
  </g>
</svg>
