<svg id="airbag_ic" xmlns="http://www.w3.org/2000/svg" width="17.107" height="19.836" viewBox="0 0 17.107 19.836">
  <path id="Path_1933" data-name="Path 1933" d="M41.577,54.906a2.585,2.585,0,0,0-2.079-.594l-3.808.586-1.081-4.532a6.2,6.2,0,0,0-3.484-4.214,1.979,1.979,0,0,0,.765-2.144L31.44,42.39a1.978,1.978,0,0,0-2.433-1.375,1.193,1.193,0,0,0-.829,1.467l1.072,3.858c.005.018,2.085,8.718,2.085,8.718a1.8,1.8,0,0,0,.33,1.892V57.2a1.594,1.594,0,0,0,1.592,1.592h7.632A1.594,1.594,0,0,0,42.48,57.2v-.33A2.586,2.586,0,0,0,41.577,54.906ZM29.241,41.856a1.1,1.1,0,0,1,1.358.768l.449,1.618a1.1,1.1,0,0,1-.768,1.358l-.307.085-.955-3.437A.319.319,0,0,1,29.241,41.856Zm3.016,6.1a5.311,5.311,0,0,1,1.5,2.616l1.065,4.463-.142.022a1.806,1.806,0,0,0-2.649-.834l-1.782-7.473A5.315,5.315,0,0,1,32.257,47.952Zm-.183,7.788a.936.936,0,1,1,.936.936A.937.937,0,0,1,32.074,55.741Zm9.533,1.46a.72.72,0,0,1-.719.719H33.256a.719.719,0,0,1-.651-.416,1.807,1.807,0,0,0,2.2-1.586l4.821-.741a1.716,1.716,0,0,1,1.977,1.7v.33Z" transform="translate(-28.134 -38.957)"/>
  <path id="Path_1934" data-name="Path 1934" d="M172.415,7.127l-.836-3.4a4.889,4.889,0,1,0-9.495,2.332l.836,3.4a4.894,4.894,0,0,0,4.739,3.724,4.922,4.922,0,0,0,1.175-.143,4.888,4.888,0,0,0,3.581-5.913ZM171.1,10.373a4.016,4.016,0,0,1-7.334-1.122l-.836-3.4a4.016,4.016,0,1,1,7.8-1.916l.836,3.4A3.989,3.989,0,0,1,171.1,10.373Z" transform="translate(-155.452 0)"/>
</svg>
