<svg xmlns="http://www.w3.org/2000/svg" width="18.7" height="22" viewBox="0 0 18.7 22">
  <path id="aux_ic" d="M17.233,13.567V11a2.2,2.2,0,0,0-2.2-2.2H13.2a1.467,1.467,0,0,1-1.458-1.309l2.209-1.964a3.229,3.229,0,0,0,1.082-2.41,2.017,2.017,0,0,0-4.033,0V7.169L8.782,9.14A3.229,3.229,0,0,0,7.7,11.55v.626A3.227,3.227,0,0,0,10.924,15.4h.442v4.4A1.467,1.467,0,0,1,9.9,21.267H4.033a1.467,1.467,0,0,1-1.415-1.1H3.667a.367.367,0,0,0,.367-.367V16.133a.367.367,0,0,0,.367-.367v-6.6A.367.367,0,0,0,4.033,8.8H3.667V3.667A.367.367,0,0,0,3.3,3.3V2.567a.367.367,0,0,0,.359-.44L3.293.293A.367.367,0,0,0,2.933,0H1.467a.367.367,0,0,0-.359.293L.741,2.127a.367.367,0,0,0,.359.44V3.3a.367.367,0,0,0-.367.367V8.8H.367A.367.367,0,0,0,0,9.167v6.6a.367.367,0,0,0,.367.367V19.8a.367.367,0,0,0,.367.367H1.866A2.2,2.2,0,0,0,4.033,22H9.9a2.2,2.2,0,0,0,2.2-2.2V15.4h1.283A2.019,2.019,0,0,0,15.4,13.383V12.65a2.017,2.017,0,1,0-4.033,0v2.017h-.442a2.493,2.493,0,0,1-2.491-2.491V11.55a2.493,2.493,0,0,1,.836-1.862l1.849-1.643A2.2,2.2,0,0,0,13.2,9.533h1.833A1.467,1.467,0,0,1,16.5,11v2.567a2.2,2.2,0,0,0,2.2,2.2v-.733a1.467,1.467,0,0,1-1.467-1.467ZM1.767.733h.865l.22,1.1H1.547Zm.8,1.833V3.3H1.833V2.567Zm-1.1,1.467H2.933v.733H1.467Zm0,1.467H2.933v.733H1.467Zm0,1.467H2.933V8.8H1.467ZM.733,9.533H3.667V15.4H.733Zm.367,9.9v-3.3H3.3v.733H1.467V17.6H3.3v.733H1.833v.733H3.3v.367Zm11-6.783a1.283,1.283,0,1,1,2.567,0v.733a1.283,1.283,0,0,1-1.283,1.283H12.1Zm-.367-9.533a1.283,1.283,0,1,1,2.567,0,2.493,2.493,0,0,1-.836,1.862L11.733,6.517Zm0,0"/>
</svg>
