<svg xmlns="http://www.w3.org/2000/svg" width="23.27" height="17.013" viewBox="0 0 23.27 17.013">
  <g id="bettery_ic" transform="translate(0 0)">
    <path id="Path_508" data-name="Path 508" d="M22.8,62.273H20.7V60.464A.469.469,0,0,0,20.23,60H18.437a.469.469,0,0,0-.469.469v1.809H5.3V60.464A.469.469,0,0,0,4.832,60H3.04a.469.469,0,0,0-.469.469v1.809H.469A.469.469,0,0,0,0,62.742v2.974a.469.469,0,0,0,.469.469H.555V76.539a.469.469,0,0,0,.469.469H22.245a.469.469,0,0,0,.469-.469V66.185H22.8a.469.469,0,0,0,.469-.469V62.742A.469.469,0,0,0,22.8,62.273Zm-3.894-1.339h.854v1.339h-.854Zm-15.4,0h.854v1.339H3.509ZM.938,63.211H22.331v2.035H.938ZM21.776,76.07H1.494V66.185H21.776Z" transform="translate(0 -59.995)"/>
    <path id="Path_509" data-name="Path 509" d="M61.685,218.4v.417a.469.469,0,0,0,.938,0V218.4h.417a.469.469,0,0,0,0-.939h-.417v-.417a.469.469,0,0,0-.938,0v.417h-.417a.469.469,0,0,0,0,.939Z" transform="translate(-57.629 -208.408)"/>
    <path id="Path_510" data-name="Path 510" d="M40.354,198.682a2.555,2.555,0,1,0-2.555-2.555A2.558,2.558,0,0,0,40.354,198.682Zm0-4.171a1.616,1.616,0,1,1-1.616,1.616A1.618,1.618,0,0,1,40.354,194.51Z" transform="translate(-35.828 -186.607)"/>
    <path id="Path_511" data-name="Path 511" d="M338.913,234.511a.469.469,0,0,0,0-.938H337.14a.469.469,0,0,0,0,.938Z" transform="translate(-319.117 -224.522)"/>
    <path id="Path_512" data-name="Path 512" d="M316.226,198.682a2.555,2.555,0,1,0-2.555-2.555A2.558,2.558,0,0,0,316.226,198.682Zm0-4.171a1.616,1.616,0,1,1-1.616,1.616A1.618,1.618,0,0,1,316.226,194.51Z" transform="translate(-297.317 -186.607)"/>
    <path id="Path_513" data-name="Path 513" d="M190,194.661a.469.469,0,0,0,.52.033l1.557-.9-1.053,3.955a.469.469,0,1,0,.907.241l1.344-5.05a.469.469,0,0,0-.689-.527l-1.557.9.662-2.486a.469.469,0,0,0-.907-.241l-.953,3.58A.469.469,0,0,0,190,194.661Z" transform="translate(-179.922 -183.448)"/>
  </g>
</svg>
