<svg xmlns="http://www.w3.org/2000/svg" width="13.381" height="22.382" viewBox="0 0 13.381 22.382">
  <g id="bluetooth_ic" transform="translate(0.531 0.468)">
    <path id="Path_1937" data-name="Path 1937" d="M53.554,10.733l4.5-4.39a.888.888,0,0,0,0-1.271L53.116.254a.888.888,0,0,0-1.508.636V8.834L47.43,4.758A.888.888,0,1,0,46.19,6.03l4.821,4.7-4.821,4.7a.888.888,0,1,0,1.24,1.271l4.177-4.076v7.945a.888.888,0,0,0,1.508.636l4.938-4.818a.888.888,0,0,0,0-1.271ZM53.384,3l2.778,2.71-2.778,2.71V3Zm0,15.473V13.049l2.778,2.71Z" transform="translate(-45.922 -0.001)" stroke="#fff" stroke-width="0.9"/>
  </g>
</svg>
