<svg xmlns="http://www.w3.org/2000/svg" width="23" height="22.993" viewBox="0 0 23 22.993">
  <g id="brakes_ic" transform="translate(0 -0.003)">
    <path id="Path_1972" data-name="Path 1972" d="M22.745,10.227A10.492,10.492,0,0,0,13.3,2.048a2.034,2.034,0,0,0-.108-.5A1.989,1.989,0,0,0,11.509.222l-1.9-.2a3.456,3.456,0,0,0-2.816,1L1.017,6.795a3.456,3.456,0,0,0-1,2.816l.2,1.9a1.989,1.989,0,0,0,1.325,1.681,2.036,2.036,0,0,0,.5.109,10.491,10.491,0,1,0,20.7-3.076ZM4.55,11.8,6.9,9.457a.475.475,0,0,0,.623-.164h0a.478.478,0,0,0,.022-.48L9.05,7.3a.478.478,0,0,0,.713-.61.47.47,0,0,0-.042-.062L11.8,4.553a7.9,7.9,0,0,1,4.99,1.215A7.987,7.987,0,1,1,4.55,11.8Zm-3.381-.39-.2-1.9a2.5,2.5,0,0,1,.723-2.04L7.468,1.7A2.5,2.5,0,0,1,9.508.973l1.9.2a1.028,1.028,0,0,1,.88.693,1.028,1.028,0,0,1-.247,1.093L2.955,12.045a1.028,1.028,0,0,1-1.093.247A1.028,1.028,0,0,1,1.169,11.413Zm19.383,6.211a9.535,9.535,0,0,1-17.56-4.47,2.012,2.012,0,0,0,.575-.371,8.938,8.938,0,0,0,4.142,7.272,8.881,8.881,0,0,0,4.779,1.4,9.021,9.021,0,0,0,1.962-.217A8.942,8.942,0,0,0,17.3,4.962a8.976,8.976,0,0,0-4.525-1.391,2.01,2.01,0,0,0,.372-.576,9.536,9.536,0,0,1,7.4,14.629Z"/>
    <path id="Path_1973" data-name="Path 1973" d="M9.931,16.559a4.768,4.768,0,0,0,2.565.751,4.84,4.84,0,0,0,1.053-.117,4.8,4.8,0,1,0-3.618-.634Zm-.669-6.113a3.844,3.844,0,1,1,1.182,5.306A3.844,3.844,0,0,1,9.261,10.447Z"/>
    <path id="Path_1974" data-name="Path 1974" d="M18.412,15.048a.471.471,0,0,0,.156.027.479.479,0,1,0-.156-.027Z"/>
    <path id="Path_1975" data-name="Path 1975" d="M17.668,9.183a.478.478,0,1,0-.385-.195A.477.477,0,0,0,17.668,9.183Z"/>
    <path id="Path_1976" data-name="Path 1976" d="M18.843,12.018a.485.485,0,0,0,.073-.005.48.48,0,1,0-.073.005Z"/>
    <path id="Path_1977" data-name="Path 1977" d="M11.266,18.313a.478.478,0,0,0-.2.935.506.506,0,0,0,.1.011.478.478,0,0,0,.1-.945Z"/>
    <path id="Path_1978" data-name="Path 1978" d="M14.1,18.222a.478.478,0,0,0,.129.939.5.5,0,0,0,.13-.018.478.478,0,0,0-.258-.921Z"/>
    <path id="Path_1979" data-name="Path 1979" d="M16.577,16.826a.478.478,0,1,0,.676.02A.479.479,0,0,0,16.577,16.826Z"/>
    <path id="Path_1980" data-name="Path 1980" d="M8.71,17.071a.478.478,0,1,0,.062.674A.478.478,0,0,0,8.71,17.071Z"/>
    <path id="Path_1981" data-name="Path 1981" d="M15.092,7.169l.007,0h0a.47.47,0,0,0,.208.048.478.478,0,0,0,.21-.908l0,0h0a.478.478,0,0,0-.419.859Z"/>
    <path id="Path_1982" data-name="Path 1982" d="M6.4,14.528a.478.478,0,1,0,.625.258A.478.478,0,0,0,6.4,14.528Z"/>
    <path id="Path_1983" data-name="Path 1983" d="M6.075,12.412l.043,0a.48.48,0,1,0-.043,0Z"/>
    <path id="Path_1984" data-name="Path 1984" d="M12.3,6.577h.016a.469.469,0,1,0-.016,0Z"/>
    <path id="Path_1985" data-name="Path 1985" d="M10.742,15.282A3.265,3.265,0,0,0,12.5,15.8a3.314,3.314,0,0,0,.721-.08,3.287,3.287,0,0,0,1.048-5.982h0a3.287,3.287,0,0,0-3.526,5.548Zm-.2-4.024a2.331,2.331,0,1,1,.717,3.217A2.331,2.331,0,0,1,10.538,11.258Z"/>
    <path id="Path_1986" data-name="Path 1986" d="M3.575,9.743A1.236,1.236,0,1,0,2.7,9.381,1.228,1.228,0,0,0,3.575,9.743Zm-.2-1.434a.28.28,0,1,1-.082.2A.278.278,0,0,1,3.378,8.309Z"/>
    <path id="Path_1987" data-name="Path 1987" d="M8.5,4.815a1.236,1.236,0,1,0-.874-.362A1.228,1.228,0,0,0,8.5,4.815Zm-.2-1.434a.28.28,0,1,1-.082.2A.278.278,0,0,1,8.306,3.381Z"/>
  </g>
</svg>
