<svg xmlns="http://www.w3.org/2000/svg" width="18.614" height="12.897" viewBox="0 0 18.614 12.897">
  <g id="car-bluetooth_ic" transform="translate(-3.386 -4.552)">
    <path id="Path_2060" data-name="Path 2060" d="M17.187,10.369h.125a.447.447,0,1,0,0-.893h-.567l-.19-.416a1.38,1.38,0,0,0-.941-.767,14.228,14.228,0,0,0-3.37,0,1.38,1.38,0,0,0-.941.767l-.19.416h-.567a.447.447,0,0,0,0,.893h.125l-.32.32a1.106,1.106,0,0,0-.312.933l.124.874a1.183,1.183,0,0,0,.311.644v.366a.447.447,0,0,0,.447.447H12.2a.446.446,0,0,0,.446-.434H15.21a.446.446,0,0,0,.446.434h1.282a.447.447,0,0,0,.447-.447v-.366a1.184,1.184,0,0,0,.311-.644l.124-.874a1.106,1.106,0,0,0-.312-.933Zm-5.844,2.257a.3.3,0,0,1-.294-.256L11,12.006h.752a.447.447,0,0,0,0-.893h-.558l.154-.154h5.167l.154.154h-.552a.447.447,0,0,0,0,.893h.746l-.052.364a.3.3,0,0,1-.294.255H11.344Zm1.1-3.462a14.049,14.049,0,0,1,2.971,0,.481.481,0,0,1,.328.268l.29.634H11.827l.29-.634A.481.481,0,0,1,12.445,9.163Z"/>
    <path id="Path_2061" data-name="Path 2061" d="M14.774,11.612H13.086a.447.447,0,0,0,0,.893h1.688a.447.447,0,0,0,0-.893Z"/>
    <path id="Path_2062" data-name="Path 2062" d="M19.354,4.552H6.344c-1.074,0-1.372.28-2.043,1.792S3.849,9.006,3.662,10.6s-.248,2.136-.248,2.136a4.223,4.223,0,0,0,4.2,4.711H19.354A2.649,2.649,0,0,0,22,14.8V7.2A2.649,2.649,0,0,0,19.354,4.552ZM3.766,9.708ZM21.107,14.8a1.755,1.755,0,0,1-1.753,1.753H7.609A3.33,3.33,0,0,1,4.3,12.841L5.024,6.62A1.328,1.328,0,0,1,6.344,5.445h13.01A1.755,1.755,0,0,1,21.107,7.2Z"/>
    <path id="Path_2063" data-name="Path 2063" d="M18.439,6.586H9.676A1.527,1.527,0,0,0,8.159,7.937l-.671,5.774A1.527,1.527,0,0,0,9,15.414h9.434a1.529,1.529,0,0,0,1.527-1.527V8.113A1.529,1.529,0,0,0,18.439,6.586Zm.634,7.3a.634.634,0,0,1-.634.634H9a.634.634,0,0,1-.629-.707L9.046,8.04a.634.634,0,0,1,.63-.561h8.763a.634.634,0,0,1,.634.634v5.774Z"/>
    <path id="Path_2064" data-name="Path 2064" d="M6.4,9.485A1.191,1.191,0,1,0,5.21,8.294,1.192,1.192,0,0,0,6.4,9.485ZM6.4,8a.3.3,0,1,1-.3.3A.3.3,0,0,1,6.4,8Z"/>
    <path id="Path_2065" data-name="Path 2065" d="M6.083,10.155a1.191,1.191,0,1,0,1.191,1.191A1.192,1.192,0,0,0,6.083,10.155Zm0,1.489a.3.3,0,1,1,.3-.3A.3.3,0,0,1,6.083,11.643Z"/>
  </g>
</svg>
