<svg xmlns="http://www.w3.org/2000/svg" width="22" height="22" viewBox="0 0 22 22">
  <g id="cruise-control_ic" transform="translate(0 0)">
    <path id="Path_2161" data-name="Path 2161" d="M10.715,9.794a1.491,1.491,0,1,0,1.491,1.491A1.493,1.493,0,0,0,10.715,9.794Zm0,2.133a.643.643,0,1,1,.643-.643A.643.643,0,0,1,10.715,11.928Z"/>
    <path id="Path_2162" data-name="Path 2162" d="M22,5.055a5.052,5.052,0,0,0-8.127-4.012,10.7,10.7,0,1,0,7.084,7.083A5.029,5.029,0,0,0,22,5.055Zm-.848,0A4.207,4.207,0,1,1,16.945.848,4.211,4.211,0,0,1,21.152,5.055ZM17.9,11.285a7.175,7.175,0,1,1-5.937-7.076,5.048,5.048,0,0,0-.066.61c-.131-.024-.263-.044-.395-.06a6.59,6.59,0,0,0-3.773.67A6.631,6.631,0,0,0,5.456,7.341a6.575,6.575,0,0,0,8.246,9.8,6.631,6.631,0,0,0,2.272-1.913,6.517,6.517,0,0,0,1.314-3.944,6.62,6.62,0,0,0-.107-1.181,5.047,5.047,0,0,0,.61-.066A7.249,7.249,0,0,1,17.9,11.285ZM16.31,10.07a5.76,5.76,0,0,1-.149,2.987l-2.321-1.526a.294.294,0,0,1,0-.492l1.71-1.125A5.014,5.014,0,0,0,16.31,10.07Zm-2.936.26a1.143,1.143,0,0,0,0,1.91l2.457,1.616a5.712,5.712,0,0,1-.334.575l-2.627-1.32a1.143,1.143,0,0,0-1.654.955L11.047,17q-.165.009-.332.009c-.112,0-.222,0-.333-.01l-.17-2.934a1.143,1.143,0,0,0-1.654-.955L5.934,14.43a5.73,5.73,0,0,1-.334-.576L8.056,12.24a1.143,1.143,0,0,0,0-1.91L5.6,8.715a5.72,5.72,0,0,1,.334-.575l2.627,1.32A1.143,1.143,0,0,0,10.212,8.5l.17-2.935q.165-.009.332-.009t.332.01l.17,2.935a1.142,1.142,0,0,0,1.654.955L13.787,9a5.074,5.074,0,0,0,.807.53Zm1.6,4.785A5.66,5.66,0,0,1,11.9,16.888l.161-2.773a.294.294,0,0,1,.426-.246ZM9.526,16.885a5.727,5.727,0,0,1-3.064-1.772l2.477-1.245a.294.294,0,0,1,.426.246Zm-4.536-5.6a5.724,5.724,0,0,1,.279-1.772L7.59,11.039a.294.294,0,0,1,0,.492L5.271,13.055A5.7,5.7,0,0,1,4.99,11.285Zm1.469-3.83A5.66,5.66,0,0,1,9.526,5.682L9.366,8.455a.294.294,0,0,1-.426.246ZM12.491,8.7a.295.295,0,0,1-.426-.246L11.9,5.684l.026.006a5.036,5.036,0,0,0,1.208,2.686ZM10.715,21.152A9.867,9.867,0,1,1,13.149,1.721a5.057,5.057,0,0,0-.975,1.665,8.028,8.028,0,1,0,6.44,6.441,5.059,5.059,0,0,0,1.665-.975,9.875,9.875,0,0,1-9.564,12.3Z"/>
    <path id="Path_2163" data-name="Path 2163" d="M16.945,8.742a3.687,3.687,0,1,0-3.687-3.687A3.691,3.691,0,0,0,16.945,8.742Zm0-.856a2.836,2.836,0,0,1-2.8-2.407h.21a.424.424,0,1,0,0-.848h-.21a2.8,2.8,0,0,1,.164-.608l.181.1a.424.424,0,1,0,.424-.735l-.18-.1a2.855,2.855,0,0,1,.445-.445l.1.18a.424.424,0,0,0,.735-.424l-.1-.181a2.8,2.8,0,0,1,.607-.164v.21a.424.424,0,1,0,.848,0v-.21a2.8,2.8,0,0,1,.608.164l-.1.182a.424.424,0,1,0,.735.424l.1-.18a2.855,2.855,0,0,1,.445.445l-.18.1a.424.424,0,1,0,.424.735l.181-.1a2.806,2.806,0,0,1,.164.608h-.21a.424.424,0,1,0,0,.848h.21A2.836,2.836,0,0,1,16.945,7.886Z"/>
    <path id="Path_2164" data-name="Path 2164" d="M16.467,3.977a.424.424,0,0,0-.6.6l.778.778a.424.424,0,1,0,.6-.6Z"/>
  </g>
</svg>
