<svg xmlns="http://www.w3.org/2000/svg" width="28.007" height="22.289" viewBox="0 0 28.007 22.289">
  <g id="Friends_icon" data-name="Friends icon" transform="translate(0 -2.246)">
    <g id="Group_2065" data-name="Group 2065" transform="translate(0 2.246)">
      <g id="Group_2067" data-name="Group 2067" transform="translate(0 0)">
        <g id="home">
          <g id="Group_2066" data-name="Group 2066">
            <path id="Path_1925" data-name="Path 1925" d="M13.146,5.78,3.158,14.015a.236.236,0,0,1-.009.052.238.238,0,0,0-.009.052v8.338a1.128,1.128,0,0,0,1.112,1.112h6.671V16.9H15.37V23.57h6.671a1.129,1.129,0,0,0,1.112-1.112V14.119a.245.245,0,0,0-.018-.1Z" transform="translate(0.857 -1.281)" fill="#d3dce6"/>
            <path id="Path_1926" data-name="Path 1926" d="M27.814,13.1l-3.8-3.162V2.854a.535.535,0,0,0-.556-.556H20.119a.535.535,0,0,0-.556.556V6.242L15.324,2.7a2.155,2.155,0,0,0-2.64,0L.193,13.1A.5.5,0,0,0,0,13.477a.563.563,0,0,0,.122.408L1.2,15.171a.593.593,0,0,0,.365.191.646.646,0,0,0,.417-.122L14,5.217,26.025,15.241a.535.535,0,0,0,.365.121h.052a.593.593,0,0,0,.365-.191l1.077-1.285a.562.562,0,0,0,.121-.409A.506.506,0,0,0,27.814,13.1Z" transform="translate(0 -2.246)" fill="#d3dce6"/>
          </g>
        </g>
      </g>
    </g>
  </g>
</svg>
