<svg xmlns="http://www.w3.org/2000/svg" xmlns:xlink="http://www.w3.org/1999/xlink" width="17" height="21" viewBox="0 0 17 21">
  <defs>
    <clipPath id="clip-path">
      <path id="path-1" d="M8.5,21A2.2,2.2,0,0,1,6.26,18.846h4.482A2.2,2.2,0,0,1,8.5,21Zm7.374-3.23H1.117a1.094,1.094,0,0,1-1.039-.686,1.04,1.04,0,0,1,.254-1.156l1.445-1.389V9.154A7.427,7.427,0,0,1,3.093,4.781,6.2,6.2,0,0,1,6.82,2.348V1.616a1.683,1.683,0,0,1,3.362,0v.733a6.2,6.2,0,0,1,3.723,2.437,7.418,7.418,0,0,1,1.32,4.368v5.385l1.445,1.389a1.034,1.034,0,0,1,.251,1.15A1.1,1.1,0,0,1,15.875,17.77Z" fill="#d3dce6"/>
    </clipPath>
  </defs>
  <g id="deactive_notification_ic" transform="translate(0)">
    <path id="path-1-2" data-name="path-1" d="M8.5,21A2.2,2.2,0,0,1,6.26,18.846h4.482A2.2,2.2,0,0,1,8.5,21Zm7.374-3.23H1.117a1.094,1.094,0,0,1-1.039-.686,1.04,1.04,0,0,1,.254-1.156l1.445-1.389V9.154A7.427,7.427,0,0,1,3.093,4.781,6.2,6.2,0,0,1,6.82,2.348V1.616a1.683,1.683,0,0,1,3.362,0v.733a6.2,6.2,0,0,1,3.723,2.437,7.418,7.418,0,0,1,1.32,4.368v5.385l1.445,1.389a1.034,1.034,0,0,1,.251,1.15A1.1,1.1,0,0,1,15.875,17.77Z" fill="#d3dce6"/>
  </g>
</svg>
