<svg id="default_image" xmlns="http://www.w3.org/2000/svg" width="323" height="162" viewBox="0 0 323 162">
  <rect id="default_image-2" data-name="default_image" width="323" height="162" rx="22" fill="#fff"/>
  <g id="Group_2430" data-name="Group 2430" transform="translate(-26 -125)">
    <g id="Group_2391" data-name="Group 2391" transform="translate(-6 -15.728)">
      <g id="photo" transform="translate(162 167.483)">
        <path id="Path_2044" data-name="Path 2044" d="M51.081,35.989a3.535,3.535,0,0,0-2.194-1.614L21.423,27.62a3.56,3.56,0,0,0-4.307,2.606l-.827,3.362L2.558,37.945A3.677,3.677,0,0,0,.106,42.317L6.711,69.172a3.53,3.53,0,0,0,3.417,2.687,3.563,3.563,0,0,0,.92-.122L32.2,66.081l8.382,2.062a3.56,3.56,0,0,0,4.307-2.606l6.605-26.855A3.536,3.536,0,0,0,51.081,35.989ZM10.447,67.8,4.01,41.634l11.172-3.545L10.511,57.081a3.564,3.564,0,0,0,2.606,4.307L24.225,64.12ZM44.258,51.54,40.5,45.755a2.425,2.425,0,0,0-3.588-.584l-8,6.362a1.347,1.347,0,0,1-.848.292,1.373,1.373,0,0,1-1.057-.483l-3.03-3.606a3.265,3.265,0,0,0-2.489-1.1,3.046,3.046,0,0,0-1.352.306l-3.491,1.739,4.211-17.122,26.7,6.566Z" transform="translate(0)" fill="#d3dce6"/>
        <path id="Path_2045" data-name="Path 2045" d="M190.207,99.8a3.547,3.547,0,1,0-2.6-4.292A3.56,3.56,0,0,0,190.207,99.8Z" transform="translate(-162.787 -56.682)" fill="#d3dce6"/>
      </g>
      <path id="add" d="M23.927,10.79H15.951a.469.469,0,0,1-.469-.469V2.346a2.346,2.346,0,0,0-4.692,0v7.976a.469.469,0,0,1-.469.469H2.346a2.346,2.346,0,0,0,0,4.692h7.976a.469.469,0,0,1,.469.469v7.976a2.346,2.346,0,1,0,4.692,0V15.951a.469.469,0,0,1,.469-.469h7.976a2.346,2.346,0,1,0,0-4.692Zm0,0" transform="translate(200 181.728)" fill="#d3dce6"/>
    </g>
    <text id="Add_pictures_of_your_vehicle" data-name="Add pictures of your vehicle" transform="translate(188 242)" fill="#d3dce6" font-size="12" font-family="Poppins-SemiBold, Poppins" font-weight="600"><tspan x="-84.66" y="0">Add pictures of your vehicle</tspan></text>
  </g>
</svg>
