<svg xmlns="http://www.w3.org/2000/svg" width="23" height="16.219" viewBox="0 0 23 16.219">
  <path id="engine_ic" d="M20.6,71.491a.458.458,0,0,0-.458.458v2.716h-.931V72.37a.458.458,0,0,0-.458-.458H16.628l-.4-1.319a.458.458,0,0,0-.438-.326H12.561V69.109H14.6a.458.458,0,0,0,.458-.458V67.124a.458.458,0,0,0-.458-.458H8.038a.458.458,0,0,0-.458.458v1.528a.458.458,0,0,0,.458.458h2.036v1.158H5.359a.458.458,0,0,0-.4.239l-.765,1.406H2.4a.458.458,0,0,0-.458.458v2.294H.915V71.392a.458.458,0,0,0-.915,0v9.46a.458.458,0,1,0,.915,0V77.58H1.944V80a.458.458,0,0,0,.458.458H6.213l1.742,2.248a.458.458,0,0,0,.362.177H18.751a.458.458,0,0,0,.458-.458V77.58h.931V80.3a.458.458,0,0,0,.458.458,2.4,2.4,0,0,0,2.4-2.4V73.893A2.4,2.4,0,0,0,20.6,71.491ZM.915,76.664V75.58H1.944v1.084ZM8.5,67.581h5.643v.613H8.5Zm2.494,1.528h.656v1.158H10.99Zm-8.13,3.718h.325v6.717H2.859ZM6.8,79.722a.458.458,0,0,0-.362-.177H4.1V72.828h.364a.458.458,0,0,0,.4-.239l.765-1.406h9.822l.4,1.319a.458.458,0,0,0,.438.326h.821V81.97H8.541Zm11.5,2.248h-.27V72.828h.27Zm.915-5.306V75.58h.931v1.084Zm2.875,1.687a1.49,1.49,0,0,1-1.029,1.415V72.478a1.49,1.49,0,0,1,1.029,1.415Z" transform="translate(0 -66.666)"/>
</svg>
