<svg xmlns="http://www.w3.org/2000/svg" width="34.373" height="34.373" viewBox="0 0 34.373 34.373">
  <path id="facebook_ic" d="M29.741,0H4.632A4.632,4.632,0,0,0,0,4.632V29.741a4.632,4.632,0,0,0,4.632,4.632H17.016l.021-12.283H13.846a.753.753,0,0,1-.753-.75l-.015-3.959a.753.753,0,0,1,.753-.756h3.185V12.8c0-4.44,2.712-6.857,6.672-6.857h3.25a.753.753,0,0,1,.753.753v3.339a.753.753,0,0,1-.753.753H24.944c-2.154,0-2.571,1.023-2.571,2.525v3.312h4.733a.753.753,0,0,1,.748.842l-.469,3.959a.753.753,0,0,1-.748.664H22.394l-.021,12.283h7.368a4.632,4.632,0,0,0,4.632-4.632V4.632A4.632,4.632,0,0,0,29.741,0Z" transform="translate(0)" fill="#475993"/>
</svg>
