<svg xmlns="http://www.w3.org/2000/svg" width="17.918" height="15.628" viewBox="0 0 17.918 15.628">
  <g id="fav_ic" transform="translate(-1.549 -2.998)" fill="none" stroke-linecap="round" stroke-linejoin="round">
    <path d="M18.085,4.38a4.714,4.714,0,0,0-6.669,0l-.909.909L9.6,4.38A4.716,4.716,0,0,0,2.93,11.049l.909.909,6.669,6.669,6.669-6.669.909-.909a4.714,4.714,0,0,0,0-6.669Z" stroke="none"/>
    <path d="M 14.75037384033203 3.998167037963867 C 13.75786399841309 3.998167037963867 12.82485389709473 4.384757995605469 12.12305355072021 5.086906433105469 L 11.21444416046143 5.995516777038574 C 11.01917839050293 6.190776824951172 10.76325607299805 6.288407325744629 10.50733375549316 6.288407325744629 C 10.25141143798828 6.288407325744629 9.995489120483398 6.190776824951172 9.800223350524902 5.995516777038574 L 8.891613960266113 5.086906433105469 C 8.189833641052246 4.385128021240234 7.256773948669434 3.998638153076172 6.264293670654297 3.998638153076172 C 5.27181339263916 3.998638153076172 4.338752746582031 4.385128021240234 3.636983871459961 5.086906433105469 C 2.188274383544922 6.53560733795166 2.188274383544922 8.892837524414063 3.636983871459961 10.34153747558594 L 4.54559326171875 11.25014686584473 L 10.50733375549316 17.21187973022461 L 16.46908378601074 11.25014686584473 L 17.37786293029785 10.34137725830078 C 18.079833984375 9.639737129211426 18.46642303466797 8.706727027893066 18.46642303466797 7.714217185974121 C 18.46642303466797 6.72171688079834 18.079833984375 5.78870677947998 17.37752342224121 5.086736679077148 C 16.67589378356934 4.384757995605469 15.74288368225098 3.998167037963867 14.75037384033203 3.998167037963867 M 14.75037384033203 2.9981689453125 C 15.9572639465332 2.9981689453125 17.16415405273438 3.458711624145508 18.08480453491211 4.379796981811523 C 19.92696380615234 6.221096992492676 19.92696380615234 9.20734691619873 18.08480453491211 11.04864692687988 L 17.17619323730469 11.95725727081299 L 10.50733375549316 18.62609672546387 L 3.838483810424805 11.95725727081299 L 2.929874420166016 11.04864692687988 C 1.088323593139648 9.207097053527832 1.088323593139648 6.221346855163574 2.929874420166016 4.379796981811523 C 3.850648880004883 3.459022521972656 5.057474136352539 2.998634338378906 6.264298439025879 2.998634338378906 C 7.471123695373535 2.998634338378906 8.677948951721191 3.459022521972656 9.598723411560059 4.379796981811523 L 10.50733375549316 5.288407325744629 L 11.41594409942627 4.379796981811523 C 12.33659362792969 3.458711624145508 13.54348373413086 2.9981689453125 14.75037384033203 2.9981689453125 Z" stroke="none" fill="#fff"/>
  </g>
</svg>
