<svg xmlns="http://www.w3.org/2000/svg" width="23" height="18.805" viewBox="0 0 23 18.805">
  <path id="fuel-station_ic" d="M23,4.428l-.191-1.913A.464.464,0,0,0,22.3,2.1l-3.216.322A6.366,6.366,0,0,0,15.225,4.25L12.754,6.721l-.042-.042a.464.464,0,0,0-.511-.1L5.733,9.345a.464.464,0,0,0-.146.1L2.921,12.11a.464.464,0,0,0,.328.792l.049,0,.186-.02L.136,16.228a.464.464,0,0,0,0,.656l3.406,3.406a.464.464,0,0,0,.656,0l3.145-3.145L9.057,18.86l-1.25,1.25a.464.464,0,0,0,.656.656L12.631,16.6a7.989,7.989,0,0,0,2.325-5.087c.006-.078.125-2.245.125-2.245a.464.464,0,0,0-.135-.354l-.177-.177L17.346,6.16a3.089,3.089,0,0,1,1.871-.887l3.365-.337A.464.464,0,0,0,23,4.428ZM6.18,10.164l6.1-2.606,1.866,1.866-.078,1.41L4.5,11.839ZM3.87,19.306l-2.75-2.75,3.831-3.831,6.147-.647Zm8.1-3.364L9.713,18.2,8,16.49l4.566-4.566L14,11.773A7.062,7.062,0,0,1,11.974,15.943ZM15.083,5.7l.363,1.043-.491.491-.363-1.043Zm-1.22,1.22.363,1.043-.113.113-.7-.7Zm5.261-2.575A4.019,4.019,0,0,0,16.689,5.5l-.514.514-.363-1.043.068-.068a5.436,5.436,0,0,1,3.294-1.561l2.754-.276.1.989Z" transform="translate(0 -2.097)"/>
</svg>
