<svg id="google_ic" xmlns="http://www.w3.org/2000/svg" width="34.373" height="34.373" viewBox="0 0 34.373 34.373">
  <path id="Path_2171" data-name="Path 2171" d="M7.618,23.1l-1.2,4.467-4.373.093a17.216,17.216,0,0,1-.127-16.049h0l3.893.714L7.521,16.2a10.257,10.257,0,0,0,.1,6.906Z" transform="translate(0 -2.33)" fill="#fbbb00"/>
  <path id="Path_2172" data-name="Path 2172" d="M38.481,17.484A17.18,17.18,0,0,1,32.354,34.1h0l-4.9-.25-.694-4.333a10.243,10.243,0,0,0,4.407-5.231h-9.19v-6.8H38.481Z" transform="translate(-4.408 -3.508)" fill="#518ef8"/>
  <path id="Path_2173" data-name="Path 2173" d="M28.459,35.8h0a17.192,17.192,0,0,1-25.9-5.258l5.57-4.559a10.222,10.222,0,0,0,14.729,5.233Z" transform="translate(-0.514 -5.213)" fill="#28b446"/>
  <path id="Path_2174" data-name="Path 2174" d="M28.639,3.957,23.071,8.515A10.22,10.22,0,0,0,8,13.866L2.4,9.283h0A17.19,17.19,0,0,1,28.639,3.957Z" transform="translate(-0.482)" fill="#f14336"/>
</svg>
