<svg xmlns="http://www.w3.org/2000/svg" width="17.976" height="21.778" viewBox="0 0 17.976 21.778">
  <g id="heated-seats_ic" transform="translate(-155.399 -757.693)">
    <g id="climatization" transform="translate(162.84 765.086)">
      <g id="Group_2072" data-name="Group 2072" transform="translate(0 0)">
        <g id="Group_2071" data-name="Group 2071" transform="translate(0)">
          <path id="Path_1936" data-name="Path 1936" d="M84.2,161.751a6.562,6.562,0,0,0,.557-2.612l.16.16a.527.527,0,0,0,.745-.745L84.6,157.5a.526.526,0,0,0-.745,0l-1.054,1.053a.527.527,0,0,0,.745.745l.143-.143a5.682,5.682,0,0,1-.477,2.208c-.063.157-.126.316-.186.483l-2.643.219c.039-.1.078-.209.12-.312a6.569,6.569,0,0,0,.559-2.617l.16.16a.527.527,0,1,0,.745-.745L80.917,157.5a.527.527,0,0,0-.745,0l-1.053,1.053a.527.527,0,1,0,.745.745l.143-.143a5.682,5.682,0,0,1-.477,2.208c-.1.252-.423,1.575-.512,1.865l-2.424-.848c.071-.217.147-.424.228-.626a6.569,6.569,0,0,0,.559-2.617l.16.16a.527.527,0,1,0,.745-.745L77.23,157.5a.527.527,0,0,0-.745,0l-1.053,1.053a.527.527,0,1,0,.745.745l.143-.143a5.682,5.682,0,0,1-.477,2.208,8.044,8.044,0,0,0-.378,1.111,8.88,8.88,0,0,0,.674,5.405,3.817,3.817,0,0,1,.192.981s0,.108,0,.6a.527.527,0,1,0,1.054,0,17.8,17.8,0,0,0-.487-2.634l2.929,1.053a5.757,5.757,0,0,1,.192,1.58.527.527,0,0,0,1.054,0,17.8,17.8,0,0,0-.487-2.634c2.526-.125,0,.006,2.51-.114a12.458,12.458,0,0,1,.611,2.748.527.527,0,1,0,1.054,0,6.562,6.562,0,0,0-.307-2.135,8.722,8.722,0,0,1-.592-2.577A10.344,10.344,0,0,1,84.2,161.751Zm-7.3,5.076-.077-.2a5.623,5.623,0,0,1-.489-2.438,7.233,7.233,0,0,1,.038-.748l.224-1.064,2.424.848a8.344,8.344,0,0,0-.052.964,12.115,12.115,0,0,0,.861,3.687Zm3.687,0a8.492,8.492,0,0,1-.567-2.634c0-.422.322-1.827.37-2.127l2.643-.219a23.189,23.189,0,0,0-.379,2.346,6.772,6.772,0,0,0,.443,2.52Z" transform="translate(-75.277 -157.346)"/>
        </g>
      </g>
    </g>
    <path id="Path_1933" data-name="Path 1933" d="M44.535,57.979A3.154,3.154,0,0,0,42,57.255l-4.646.715L36.033,52.44a7.561,7.561,0,0,0-4.25-5.142,2.415,2.415,0,0,0,.933-2.615l-.548-1.974A2.414,2.414,0,0,0,29.2,41.031a1.455,1.455,0,0,0-1.011,1.789L29.5,47.527c.006.022,2.544,10.636,2.544,10.636a2.2,2.2,0,0,0,.4,2.308v.308a1.944,1.944,0,0,0,1.942,1.942h9.311a1.944,1.944,0,0,0,1.942-1.942v-.4A3.155,3.155,0,0,0,44.535,57.979ZM29.484,42.057a1.345,1.345,0,0,1,1.657.937l.548,1.974a1.347,1.347,0,0,1-.937,1.657l-.374.1-1.165-4.194A.389.389,0,0,1,29.484,42.057Zm3.68,7.438A6.479,6.479,0,0,1,35,52.687l1.3,5.445-.173.027a2.2,2.2,0,0,0-3.232-1.017l-2.175-9.118A6.484,6.484,0,0,1,33.164,49.5ZM32.94,59a1.141,1.141,0,1,1,1.141,1.141A1.143,1.143,0,0,1,32.94,59Zm11.632,1.782a.878.878,0,0,1-.877.877H34.384a.877.877,0,0,1-.794-.508,2.2,2.2,0,0,0,2.689-1.936l5.882-.9a2.093,2.093,0,0,1,2.412,2.069v.4Z" transform="translate(127.265 716.75)"/>
  </g>
</svg>
