<svg xmlns="http://www.w3.org/2000/svg" width="14.768" height="14.768" viewBox="0 0 14.768 14.768">
  <path id="info_ic" d="M13.778,3.677A7.353,7.353,0,0,0,11.091.99,7.223,7.223,0,0,0,7.384,0,7.223,7.223,0,0,0,3.678.99,7.351,7.351,0,0,0,.99,3.677,7.223,7.223,0,0,0,0,7.384,7.224,7.224,0,0,0,.99,11.09a7.353,7.353,0,0,0,2.687,2.687,7.223,7.223,0,0,0,3.706.99,7.223,7.223,0,0,0,3.706-.99,7.351,7.351,0,0,0,2.687-2.687,7.224,7.224,0,0,0,.99-3.706A7.224,7.224,0,0,0,13.778,3.677ZM6.153,1.846a.3.3,0,0,1,.308-.308H8.307a.3.3,0,0,1,.308.308V3.384a.3.3,0,0,1-.308.308H6.461a.3.3,0,0,1-.308-.308ZM9.845,12a.3.3,0,0,1-.308.307H5.23A.3.3,0,0,1,4.923,12V10.46a.3.3,0,0,1,.308-.308h.923V7.076H5.23a.3.3,0,0,1-.308-.308V5.23a.3.3,0,0,1,.308-.308H8.307a.3.3,0,0,1,.308.308v4.923h.923a.3.3,0,0,1,.308.308V12h0Z" transform="translate(0 0)" fill="#b8b8b8"/>
</svg>
