<svg xmlns="http://www.w3.org/2000/svg" width="21.997" height="22" viewBox="0 0 21.997 22">
  <g id="keyless-entry_ic" transform="translate(-0.001)">
    <path id="Path_2066" data-name="Path 2066" d="M20.3,1.706a5.826,5.826,0,0,0-8.239,0L9.827,3.935a3.333,3.333,0,0,0,0,4.709l.028.028L8.39,10.138a.476.476,0,0,0-.063.079l-.768,1.193-1.193.768a.474.474,0,0,0-.142.142l-.768,1.193-1.193.768a.475.475,0,0,0-.142.142l-.768,1.193-1.193.768a.475.475,0,0,0-.142.142l-.763,1.185-1.021.605A.475.475,0,0,0,0,18.742L.11,21.436a.474.474,0,0,0,.455.455L3.26,22h.019a.475.475,0,0,0,.336-.139l9.715-9.715.028.028a3.333,3.333,0,0,0,4.709,0L20.3,9.946A5.833,5.833,0,0,0,20.3,1.706ZM1.835,18.469a.475.475,0,0,0,.157-.151l.768-1.193,1.193-.768a.475.475,0,0,0,.142-.142l.768-1.193,1.193-.768a.475.475,0,0,0,.142-.142l.768-1.193,1.193-.768a.474.474,0,0,0,.142-.142l.8-1.236,1.43-1.43,1.116,1.116L1.137,20.964l-.1,0L.961,18.987ZM3.09,21.043l-.663-.027,9.886-9.886.345.345ZM19.624,9.274,17.395,11.5a2.383,2.383,0,0,1-3.367,0L10.5,7.973a2.38,2.38,0,0,1,0-3.367l2.229-2.229a4.877,4.877,0,0,1,6.9,0l.336-.336-.336.336A4.882,4.882,0,0,1,19.624,9.274Z"/>
    <path id="Path_2067" data-name="Path 2067" d="M18.727,3.352a3.58,3.58,0,0,0-3.94-.8.475.475,0,0,0-.153.77L18.645,7.4a.475.475,0,0,0,.773-.144A3.55,3.55,0,0,0,18.727,3.352Zm.021,2.8L15.883,3.24a2.626,2.626,0,0,1,2.163.773A2.581,2.581,0,0,1,18.748,6.148Z"/>
  </g>
</svg>
