<svg id="last-seen_ic" xmlns="http://www.w3.org/2000/svg" width="18.927" height="12.468" viewBox="0 0 18.927 12.468">
  <g id="Group_2437" data-name="Group 2437" transform="translate(0 0)">
    <g id="visibility" transform="translate(0 0)">
      <g id="Group_2435" data-name="Group 2435" transform="translate(0)">
        <g id="Group_2434" data-name="Group 2434" transform="translate(0)">
          <path id="Path_2194" data-name="Path 2194" d="M18.882,96.444a9.944,9.944,0,0,0-9.419-5.995A9.946,9.946,0,0,0,.044,96.444a.668.668,0,0,0,0,.479,9.948,9.948,0,0,0,9.419,5.995,9.948,9.948,0,0,0,9.419-5.994A.668.668,0,0,0,18.882,96.444Zm-9.419,5.188a8.763,8.763,0,0,1-8.178-4.949,8.761,8.761,0,0,1,8.178-4.949,8.76,8.76,0,0,1,8.178,4.949A8.763,8.763,0,0,1,9.463,101.632Z" transform="translate(0 -90.449)"/>
        </g>
      </g>
    </g>
    <path id="Path_2195" data-name="Path 2195" d="M156.39,152.32a5,5,0,1,0,4.966,5A4.989,4.989,0,0,0,156.39,152.32Zm0,5c-1.8,0,2.049,1.812,2.049,0s-3.848,0-2.049,0-2.049-1.812-2.049,0S158.19,157.32,156.39,157.32Z" transform="translate(-146.961 -152.136)"/>
  </g>
  <path id="curve-arrow" d="M1.395,2.435a3.04,3.04,0,0,1-.806,2.19c-.166.135-1,.713-.338,1s1.944-1.6,1.944-3.023S.812-.147.3.013.37.767.37.767,1.395,1.624,1.395,2.435Z" transform="matrix(-0.469, -0.883, 0.883, -0.469, 6.6, 4.929)" fill="#fff"/>
</svg>
