<svg xmlns="http://www.w3.org/2000/svg" width="18.376" height="22" viewBox="0 0 18.376 22">
  <g id="leather-seats_ic" transform="translate(-1.769 0.043)">
    <g id="Group_2209" data-name="Group 2209">
      <g id="Group_2208" data-name="Group 2208">
        <path id="Path_2079" data-name="Path 2079" d="M20.021,6.8a.3.3,0,0,0,.11-.33V6.434A5.193,5.193,0,0,0,18.15,3.315a.33.33,0,0,0-.367-.037,3.648,3.648,0,0,1-3.119-.037,3.876,3.876,0,0,1-1.5-2.606A.311.311,0,0,0,12.9.342a5.194,5.194,0,0,0-3.927,0,.32.32,0,0,0-.22.294,3.948,3.948,0,0,1-1.5,2.606,3.483,3.483,0,0,1-3.156.037.279.279,0,0,0-.33.037A5.193,5.193,0,0,0,1.783,6.434v.037a.512.512,0,0,0,.11.33,6.387,6.387,0,0,1,1.725,4.514,6.387,6.387,0,0,1-1.725,4.514.3.3,0,0,0-.11.33V16.2a5.193,5.193,0,0,0,1.982,3.119.374.374,0,0,0,.33.073c.22-.073,4.844-1.651,6.532,2.349a.321.321,0,0,0,.33.22.314.314,0,0,0,.33-.257c1.725-3.963,6.349-2.422,6.532-2.349a.279.279,0,0,0,.33-.037A5.193,5.193,0,0,0,20.131,16.2v-.037a.512.512,0,0,0-.11-.33A6.823,6.823,0,0,1,20.021,6.8Zm-2.165,11.78c-.954-.257-4.954-1.174-6.9,2.165a5.086,5.086,0,0,0-4.624-2.459,8.311,8.311,0,0,0-2.275.33,4.552,4.552,0,0,1-1.5-2.422,7.128,7.128,0,0,0,1.8-4.881A7.291,7.291,0,0,0,2.553,6.4a4.552,4.552,0,0,1,1.5-2.422,4.162,4.162,0,0,0,3.6-.147A4.5,4.5,0,0,0,9.452.893a4.693,4.693,0,0,1,3.009,0,4.5,4.5,0,0,0,1.8,2.936,4.162,4.162,0,0,0,3.6.147,4.342,4.342,0,0,1,1.5,2.422,7.552,7.552,0,0,0,0,9.762A4.343,4.343,0,0,1,17.856,18.581Z"/>
        <path id="Path_2080" data-name="Path 2080" d="M11.434,18.1c-.147.147-.33.257-.477.4a4.65,4.65,0,0,0-.477-.4.388.388,0,0,0-.514.073.4.4,0,0,0,.073.514,3.1,3.1,0,0,1,.661.55.355.355,0,0,0,.514,0l.661-.55a.367.367,0,0,0-.44-.587Z"/>
        <path id="Path_2081" data-name="Path 2081" d="M8.755,17.223a5.485,5.485,0,0,0-1.578-.33.4.4,0,0,0-.4.33.37.37,0,0,0,.33.4,5.821,5.821,0,0,1,1.431.294h.11a.372.372,0,0,0,.33-.22A.367.367,0,0,0,8.755,17.223Z"/>
        <path id="Path_2082" data-name="Path 2082" d="M5.269,16.893c-.257.037-.514.073-.734.11a2.022,2.022,0,0,1-.33-.514c.147-.184.294-.4.44-.624a.406.406,0,0,0-.147-.514.406.406,0,0,0-.514.147,5.042,5.042,0,0,1-.477.734.434.434,0,0,0-.037.367,3.23,3.23,0,0,0,.661,1.064.286.286,0,0,0,.257.11h.073a7.342,7.342,0,0,1,.881-.147.364.364,0,0,0,.33-.4A.347.347,0,0,0,5.269,16.893Z"/>
        <path id="Path_2083" data-name="Path 2083" d="M5.416,8.673a.326.326,0,0,0-.44-.257.326.326,0,0,0-.257.44,9.924,9.924,0,0,1,.294,1.5.39.39,0,0,0,.367.33.036.036,0,0,1,.037.037.364.364,0,0,0,.33-.4A13.138,13.138,0,0,0,5.416,8.673Z"/>
        <path id="Path_2084" data-name="Path 2084" d="M5.379,11.939a.37.37,0,0,0-.4.33,6.749,6.749,0,0,1-.294,1.541.4.4,0,0,0,.257.44h.11a.3.3,0,0,0,.33-.257,11.96,11.96,0,0,0,.33-1.651A.4.4,0,0,0,5.379,11.939Z"/>
        <path id="Path_2085" data-name="Path 2085" d="M4.608,6.764a3.635,3.635,0,0,0-.4-.624A2.08,2.08,0,0,1,4.5,5.663c.257.037.514.073.734.11a.43.43,0,0,0,.4-.33.427.427,0,0,0-.367-.4,8.191,8.191,0,0,1-.844-.147A.332.332,0,0,0,4.058,5,3.67,3.67,0,0,0,3.434,6.03a.338.338,0,0,0,.037.367,5.036,5.036,0,0,1,.477.734.438.438,0,0,0,.33.184.275.275,0,0,0,.184-.037A.371.371,0,0,0,4.608,6.764Z"/>
        <path id="Path_2086" data-name="Path 2086" d="M8.535,4.085a3.838,3.838,0,0,1-1.358.771.382.382,0,0,0-.22.477.442.442,0,0,0,.367.257H7.4a4.821,4.821,0,0,0,1.615-.954.364.364,0,1,0-.477-.55Z"/>
        <path id="Path_2087" data-name="Path 2087" d="M11.874,1.737a.355.355,0,0,0-.294-.257,3.771,3.771,0,0,0-1.284,0A.356.356,0,0,0,10,1.737a5.238,5.238,0,0,1-.294.807.364.364,0,0,0,.184.477.221.221,0,0,0,.147.037c.147,0,.257-.073.257-.22a5.648,5.648,0,0,0,.294-.7,1.782,1.782,0,0,1,.624,0c.11.257.184.477.294.7a.361.361,0,1,0,.661-.294A5.244,5.244,0,0,1,11.874,1.737Z"/>
        <path id="Path_2088" data-name="Path 2088" d="M14.59,5.59a.352.352,0,0,0,.33-.257.367.367,0,0,0-.22-.477,3.351,3.351,0,0,1-1.358-.771.364.364,0,1,0-.477.55,4.282,4.282,0,0,0,1.615.954Z"/>
        <path id="Path_2089" data-name="Path 2089" d="M16.682,5.774a5.069,5.069,0,0,0,.734-.11,2.081,2.081,0,0,1,.294.477,3.638,3.638,0,0,0-.4.624.406.406,0,0,0,.147.514.331.331,0,0,0,.184.037.374.374,0,0,0,.294-.184,5.042,5.042,0,0,1,.477-.734.434.434,0,0,0,.037-.367A3.667,3.667,0,0,0,17.819,5a.352.352,0,0,0-.367-.11,6.768,6.768,0,0,1-.844.147.364.364,0,0,0-.33.4A.347.347,0,0,0,16.682,5.774Z"/>
        <path id="Path_2090" data-name="Path 2090" d="M16.5,10.691h.037a.359.359,0,0,0,.367-.33A6.749,6.749,0,0,1,17.2,8.819a.377.377,0,0,0-.257-.44.4.4,0,0,0-.44.257,11.96,11.96,0,0,0-.33,1.651A.43.43,0,0,0,16.5,10.691Z"/>
        <path id="Path_2091" data-name="Path 2091" d="M16.865,14.251h.073a.326.326,0,0,0,.257-.44,11.4,11.4,0,0,1-.294-1.541.347.347,0,0,0-.4-.33.364.364,0,0,0-.33.4,13.154,13.154,0,0,0,.33,1.651A.442.442,0,0,0,16.865,14.251Z"/>
        <path id="Path_2092" data-name="Path 2092" d="M17.306,15.865a3.635,3.635,0,0,0,.4.624c-.11.184-.22.367-.33.514-.257-.037-.477-.073-.734-.11a.4.4,0,0,0-.4.33.43.43,0,0,0,.33.4,7.351,7.351,0,0,1,.881.147h.073a.417.417,0,0,0,.294-.11A3.23,3.23,0,0,0,18.48,16.6a.338.338,0,0,0-.037-.367,5.036,5.036,0,0,1-.477-.734.378.378,0,0,0-.661.367Z"/>
        <path id="Path_2093" data-name="Path 2093" d="M14.737,16.856a10.934,10.934,0,0,0-1.578.33.382.382,0,0,0-.22.477.442.442,0,0,0,.367.257.128.128,0,0,0,.073-.037,5.825,5.825,0,0,1,1.431-.294.364.364,0,0,0,.33-.4A.37.37,0,0,0,14.737,16.856Z"/>
      </g>
    </g>
  </g>
</svg>
