<svg id="my-ads_ic" xmlns="http://www.w3.org/2000/svg" width="18.927" height="16.015" viewBox="0 0 18.927 16.015">
  <path id="Path_2036" data-name="Path 2036" d="M7.28,1.769H1.456A1.4,1.4,0,0,0,.432,2.2,1.4,1.4,0,0,0,0,3.225V7.593A1.4,1.4,0,0,0,.432,8.616a1.4,1.4,0,0,0,1.024.432H7.28A1.477,1.477,0,0,0,8.736,7.593V3.225A1.4,1.4,0,0,0,8.3,2.2,1.4,1.4,0,0,0,7.28,1.769Z" transform="translate(0 -1.769)"/>
  <path id="Path_2037" data-name="Path 2037" d="M7.28,12.385H1.456a1.4,1.4,0,0,0-1.024.432A1.4,1.4,0,0,0,0,13.841v4.368a1.4,1.4,0,0,0,.432,1.024,1.4,1.4,0,0,0,1.024.432H7.28a1.476,1.476,0,0,0,1.456-1.456V13.841A1.476,1.476,0,0,0,7.28,12.385Z" transform="translate(0 -3.649)"/>
  <path id="Path_2038" data-name="Path 2038" d="M20.688,2.2a1.4,1.4,0,0,0-1.024-.432H13.84a1.4,1.4,0,0,0-1.024.432,1.4,1.4,0,0,0-.432,1.024V7.593A1.477,1.477,0,0,0,13.84,9.049h5.824A1.477,1.477,0,0,0,21.12,7.593V3.225A1.4,1.4,0,0,0,20.688,2.2Z" transform="translate(-2.193 -1.769)"/>
  <path id="Path_2039" data-name="Path 2039" d="M19.664,12.385H13.84a1.477,1.477,0,0,0-1.456,1.456v4.368a1.477,1.477,0,0,0,1.456,1.456h5.824a1.477,1.477,0,0,0,1.456-1.456V13.841a1.477,1.477,0,0,0-1.456-1.456Z" transform="translate(-2.193 -3.649)"/>
</svg>
