<svg id="my-monetizes-ads_ic" xmlns="http://www.w3.org/2000/svg" width="10.505" height="20.176" viewBox="0 0 10.505 20.176">
  <path id="Path_2035" data-name="Path 2035" d="M15.87,12.283a4.069,4.069,0,0,0-.355-.861,2.913,2.913,0,0,0-.6-.715,7.125,7.125,0,0,0-.7-.563,6.806,6.806,0,0,0-.85-.479q-.54-.265-.855-.394T11.6,8.917q-.529-.2-.788-.31t-.681-.3a3.97,3.97,0,0,1-.63-.349,4.955,4.955,0,0,1-.445-.371,1.268,1.268,0,0,1-.332-.467,1.514,1.514,0,0,1,.58-1.79,2.927,2.927,0,0,1,1.745-.484,3.752,3.752,0,0,1,.963.13,5.035,5.035,0,0,1,.839.293,5.825,5.825,0,0,1,.659.36q.31.2.439.3c.086.068.141.113.163.135a.359.359,0,0,0,.3.079.307.307,0,0,0,.259-.18l.912-1.644a.326.326,0,0,0-.056-.428c-.045-.045-.1-.1-.169-.158s-.214-.169-.439-.327a5.435,5.435,0,0,0-.715-.422,7.23,7.23,0,0,0-.98-.377,6.245,6.245,0,0,0-1.244-.259V.36a.346.346,0,0,0-.36-.36h-1.52a.346.346,0,0,0-.253.107A.346.346,0,0,0,9.745.36V2.387A5.151,5.151,0,0,0,6.874,3.9a3.85,3.85,0,0,0-1.1,2.725,3.91,3.91,0,0,0,.1.878,4.5,4.5,0,0,0,.236.749,2.755,2.755,0,0,0,.4.653,6.993,6.993,0,0,0,.49.552,3.976,3.976,0,0,0,.6.478q.372.248.636.4t.7.349q.439.2.693.3t.693.281q.608.236.9.366t.743.36a3.084,3.084,0,0,1,.659.422A2.116,2.116,0,0,1,13,12.88a1.141,1.141,0,0,1,.169.6,1.576,1.576,0,0,1-.693,1.373,2.729,2.729,0,0,1-1.6.484,3.934,3.934,0,0,1-.833-.09A5.882,5.882,0,0,1,7.3,13.837l-.023-.023a.279.279,0,0,0-.27-.1.35.35,0,0,0-.259.135l-1.16,1.52a.342.342,0,0,0,.023.462q.056.068.2.2a6.516,6.516,0,0,0,.524.423A6.909,6.909,0,0,0,8.31,17.5a7.108,7.108,0,0,0,1.436.349v1.97a.365.365,0,0,0,.36.36h1.52a.346.346,0,0,0,.36-.36v-1.97A4.834,4.834,0,0,0,14.9,16.309a4.284,4.284,0,0,0,1.12-2.967A3.7,3.7,0,0,0,15.87,12.283Z" transform="translate(-5.512 0)"/>
</svg>
