<svg xmlns="http://www.w3.org/2000/svg" width="21.291" height="22" viewBox="0 0 21.291 22">
  <g id="parking-sensors_ic" transform="translate(0 -0.025)">
    <path id="Shape" d="M12.481,19.368a1.106,1.106,0,0,0,.677,1.016,6.944,6.944,0,0,0,5.244.022,1.1,1.1,0,0,0,.686-1.02V12.715l.209.1a.367.367,0,0,0,.317-.661l-.537-.257a2.93,2.93,0,0,0-2.661-2.688,6.873,6.873,0,0,0-1.244,0,2.921,2.921,0,0,0-2.68,2.693l-.537.257a.367.367,0,0,0,.159.7.848.848,0,0,0,.367-.136Zm.734-3.864a7.488,7.488,0,0,1,5.139,0v2.764a7.486,7.486,0,0,1-5.139,0Zm5.139-.771a8.232,8.232,0,0,0-5.139,0V13.223a8.941,8.941,0,0,1,5.139,0Zm-.233,4.992a6.15,6.15,0,0,1-4.675-.019.373.373,0,0,1-.231-.338v-.33a8.093,8.093,0,0,0,5.139,0v.349a.371.371,0,0,1-.233.341Zm-.341-9.079h-.894v-.58a2.2,2.2,0,0,1,.894.583ZM16.151,9.93v.719a.734.734,0,0,0,.734.734h1.333a2.7,2.7,0,0,1,.136,1.083,9.716,9.716,0,0,0-5.139,0,2.7,2.7,0,0,1,.134-1.083h1.334a.734.734,0,0,0,.734-.734V9.926A4.029,4.029,0,0,1,16.151,9.93Zm-1.468.131v.587h-.9A2.187,2.187,0,0,1,14.683,10.061Z"/>
    <path id="Shape-2" data-name="Shape" d="M5.46,6.006a1.106,1.106,0,0,0-.24,1.2,6.808,6.808,0,0,0,3.692,3.723,1.1,1.1,0,0,0,1.207-.236l4.717-4.717.076.218a.367.367,0,1,0,.693-.243l-.2-.562a2.93,2.93,0,0,0,.018-3.781,6.919,6.919,0,0,0-.876-.884,2.921,2.921,0,0,0-3.8.009l-.562-.2a.367.367,0,1,0-.242.692l.218.077ZM11.723.977l.941.94a.734.734,0,0,0,1.038,0l.51-.511a6.193,6.193,0,0,1,.518.521l-.508.509a.734.734,0,0,0,0,1.038l.942.942a2.7,2.7,0,0,1-.67.862A9.708,9.708,0,0,0,10.86,1.645a2.651,2.651,0,0,1,.863-.669Zm3.65,2.611-.632-.633.412-.412a2.2,2.2,0,0,1,.22,1.044Zm-2.483,3.3A8.228,8.228,0,0,0,9.256,3.25l1.069-1.069a8.944,8.944,0,0,1,3.634,3.634ZM8.712,3.793a7.485,7.485,0,0,1,3.634,3.634L10.391,9.381A7.483,7.483,0,0,1,6.757,5.747Zm.482,6.455A6.066,6.066,0,0,1,5.9,6.929a.372.372,0,0,1,.077-.4l.234-.234A8.228,8.228,0,0,0,9.847,9.926l-.247.247a.373.373,0,0,1-.407.076ZM13.6.983l-.416.416-.629-.63c.033,0,.066-.01.1-.01A2.191,2.191,0,0,1,13.6.983Z"/>
    <path id="Shape-3" data-name="Shape" d="M20.924,11.379a.367.367,0,0,0-.367.367v9.544H11.012V11.747a.367.367,0,1,0-.734,0v9.544h-4.4v-.384a.367.367,0,1,0-.734,0v.384H.734V11.747a.367.367,0,1,0-.734,0v9.544a.734.734,0,0,0,.734.734H20.556a.734.734,0,0,0,.734-.734V11.747A.367.367,0,0,0,20.924,11.379Z"/>
    <path id="Shape-4" data-name="Shape" d="M5.139,17.149a.367.367,0,0,0,.734,0V16.4a.367.367,0,0,0-.734,0Z"/>
    <path id="Shape-5" data-name="Shape" d="M5.73,11.541a.367.367,0,0,0-.437.28,6.62,6.62,0,0,0-.124.786.367.367,0,1,0,.731.07,5.918,5.918,0,0,1,.11-.7.367.367,0,0,0-.28-.438Z"/>
    <path id="Shape-6" data-name="Shape" d="M6.476,10.648c.047-.1.1-.191.15-.285a.367.367,0,0,0-.64-.36q-.089.158-.168.319a.367.367,0,1,0,.658.325Z"/>
    <path id="Shape-7" data-name="Shape" d="M5.139,14.895a.367.367,0,0,0,.734,0v-.751a.367.367,0,1,0-.734,0Z"/>
    <path id="Shape-8" data-name="Shape" d="M5.139,19.4a.367.367,0,0,0,.734,0v-.751a.367.367,0,0,0-.734,0Z"/>
    <path id="Shape-9" data-name="Shape" d="M3.117,3.4a4.6,4.6,0,0,0-.147,6.631c.127.127.217.235.392.235a.367.367,0,0,0,.244-.641,3.863,3.863,0,0,1,0-5.677A.367.367,0,0,0,3.117,3.4Z"/>
    <path id="Shape-10" data-name="Shape" d="M4.633,5a.367.367,0,1,0-.455-.576A3.114,3.114,0,0,0,4.008,8.99a.569.569,0,0,0,.4.229.367.367,0,0,0,.228-.655A2.379,2.379,0,0,1,4.633,5Z"/>
  </g>
</svg>
