<svg id="piant_ic" xmlns="http://www.w3.org/2000/svg" width="20.764" height="23" viewBox="0 0 20.764 23">
  <path id="Path_547" data-name="Path 547" d="M14.5,14.805a.447.447,0,0,0,0-.894h-.424v-.553a.447.447,0,0,0-.447-.447H11.019a.447.447,0,0,0-.447.447v.1h-.393l-.835-2.4L11.1,8.835a.447.447,0,0,0,.074-.414L8.551.31A.447.447,0,0,0,7.988.022L1.428,2.14A.447.447,0,0,0,1.14,2.7l2.619,8.111a.447.447,0,0,0,.3.292l2.743.788.546,1.567H5.9a1.559,1.559,0,0,0-1.162.519H3.259a.447.447,0,0,0,0,.894h1.05L1.825,22.413A.447.447,0,0,0,2.249,23a4.7,4.7,0,0,0,4.461-3.216L7.6,17.115a.98.98,0,0,1,.707-.645A5.2,5.2,0,0,0,9.821,19.7l.27.27a.447.447,0,0,0,.632-.632l-.27-.27A4.313,4.313,0,0,1,9.2,16.444h1.368v.1a.447.447,0,0,0,.447.447H13.63a.447.447,0,0,0,.447-.447v-.553H14.5a.447.447,0,1,0,0-.894h-.424v-.3H14.5ZM7.838,1.01l.2.632L2.332,3.486l-.2-.632Zm-3.3,9.3L2.607,4.337,8.317,2.494l1.929,5.975L8.573,10.6l-1.432.465Zm3.185,1.5.841-.273.669,1.922H8.3ZM5.862,19.5a3.8,3.8,0,0,1-2.977,2.551l1.848-5.609h2.2a1.883,1.883,0,0,0-.181.389ZM5.028,15.55l.242-.735a.667.667,0,0,1,.635-.459h4.667V15.55Zm8.155.55H11.466V13.806h1.717Z" transform="translate(-1.118 0)"/>
  <path id="Path_548" data-name="Path 548" d="M21.686,18.381l-5.047-3.428,5.047-3.428a.447.447,0,0,0-.5-.74l-5.592,3.8a.447.447,0,0,0,0,.74l5.592,3.8a.447.447,0,0,0,.5-.74Z" transform="translate(-1.118 0)"/>
</svg>
