<svg xmlns="http://www.w3.org/2000/svg" width="22" height="20.167" viewBox="0 0 22 20.167">
  <g id="power-door-lock_ic" transform="translate(0 -0.917)">
    <g id="Group_2211" data-name="Group 2211">
      <g id="Group_2210" data-name="Group 2210">
        <path id="Path_2094" data-name="Path 2094" d="M21.7,2.5A2.843,2.843,0,0,0,19.141.917H10.26a5.963,5.963,0,0,0-4.454,2L1.5,7.758A5.968,5.968,0,0,0,0,11.775l.766,5.915h0a3.911,3.911,0,0,0,1.108,2.252,3.869,3.869,0,0,0,2.754,1.14H20.166A1.835,1.835,0,0,0,22,19.25V3.775A2.873,2.873,0,0,0,21.7,2.5ZM21.083,19.25h0a.918.918,0,0,1-.917.917H4.631a2.958,2.958,0,0,1-2.105-.872,2.989,2.989,0,0,1-.847-1.722L.917,11.716A5.039,5.039,0,0,1,2.19,8.366l4.3-4.841a5.047,5.047,0,0,1,3.768-1.692h8.88a1.942,1.942,0,0,1,1.942,1.942Z"/>
      </g>
    </g>
    <g id="Group_2213" data-name="Group 2213">
      <g id="Group_2212" data-name="Group 2212">
        <path id="Path_2095" data-name="Path 2095" d="M20.058,3.317a1.018,1.018,0,0,0-.917-.567h-8.88A4.129,4.129,0,0,0,7.178,4.134l-4.3,4.841a3.524,3.524,0,0,0-1.042,2.483.458.458,0,0,0,.458.458H19.708a.458.458,0,0,0,.458-.458V3.775A1.03,1.03,0,0,0,20.058,3.317ZM19.25,11H2.787A2.816,2.816,0,0,1,3.56,9.584l4.3-4.841a3.213,3.213,0,0,1,2.4-1.077h8.88c.043,0,.078.021.108.108Z"/>
      </g>
    </g>
    <g id="Group_2215" data-name="Group 2215">
      <g id="Group_2214" data-name="Group 2214">
        <path id="Path_2096" data-name="Path 2096" d="M19.708,13.75h-2.75a.458.458,0,1,0,0,.917h2.75a.458.458,0,1,0,0-.917Z"/>
      </g>
    </g>
    <g id="Group_2217" data-name="Group 2217">
      <g id="Group_2216" data-name="Group 2216">
        <path id="Path_2097" data-name="Path 2097" d="M9.949,4.718a.458.458,0,0,0-.648,0l-.917.917a.458.458,0,1,0,.648.648l.917-.917A.458.458,0,0,0,9.949,4.718Z"/>
      </g>
    </g>
    <g id="Group_2219" data-name="Group 2219">
      <g id="Group_2218" data-name="Group 2218">
        <path id="Path_2098" data-name="Path 2098" d="M11.782,4.718a.458.458,0,0,0-.648,0l-2.75,2.75a.458.458,0,1,0,.648.648l2.75-2.75A.458.458,0,0,0,11.782,4.718Z"/>
      </g>
    </g>
    <g id="Group_2221" data-name="Group 2221">
      <g id="Group_2220" data-name="Group 2220">
        <path id="Path_2099" data-name="Path 2099" d="M19.708,16.5H3.208a.458.458,0,0,0,0,.917h16.5a.458.458,0,1,0,0-.917Z"/>
      </g>
    </g>
  </g>
</svg>
