<svg xmlns="http://www.w3.org/2000/svg" width="18.747" height="16.169" viewBox="0 0 18.747 16.169">
  <g id="saved_ic" transform="translate(-1.549 -2.998)" fill="none" stroke-linecap="round" stroke-linejoin="round">
    <path d="M18.85,4.428a4.972,4.972,0,0,0-6.978,0l-.951.94-.951-.94a4.973,4.973,0,0,0-6.978,0,4.84,4.84,0,0,0,0,6.9l.951.94,6.978,6.9,6.978-6.9.951-.94a4.839,4.839,0,0,0,0-6.9Z" stroke="none"/>
    <path d="M 15.36157608032227 4.79817008972168 C 14.52069664001465 4.79817008972168 13.73126602172852 5.12101936340332 13.13840579986572 5.707539558410645 L 12.18773651123047 6.647600173950195 C 11.83705806732178 6.994367599487305 11.37965679168701 7.167688369750977 10.92210578918457 7.167688369750977 C 10.46466732025146 7.167688369750977 10.00707817077637 6.994287490844727 9.656486511230469 6.647609710693359 L 8.705796241760254 5.707539558410645 C 8.113076210021973 5.121429443359375 7.323535919189453 4.798650741577148 6.482625961303711 4.798650741577148 C 5.641706466674805 4.798650741577148 4.852167129516602 5.121429443359375 4.25944709777832 5.707550048828125 C 3.672145843505859 6.288290023803711 3.348705291748047 7.058919906616211 3.348705291748047 7.877479553222656 C 3.348705291748047 8.696049690246582 3.672145843505859 9.466690063476563 4.259435653686523 10.04743003845215 L 5.210126876831055 10.98748970031738 L 10.92210674285889 16.63570785522461 L 16.63408660888672 10.98750019073486 L 17.5850658416748 10.04712963104248 C 18.17247581481934 9.466549873352051 18.49598693847656 8.696020126342773 18.49597549438477 7.877490043640137 C 18.49597549438477 7.0589599609375 18.17247581481934 6.288430213928223 17.58445739746094 5.707249641418457 C 16.99188613891602 5.12101936340332 16.20245552062988 4.79817008972168 15.36157608032227 4.79817008972168 M 15.36158180236816 2.998174667358398 C 16.62434577941895 2.998174667358398 17.88711166381836 3.474660873413086 18.85038566589355 4.427629470825195 C 20.77784538269043 6.332670211791992 20.77784538269043 9.422309875488281 18.85038566589355 11.32734966278076 L 17.89971542358398 12.26741027832031 L 10.92210578918457 19.16712951660156 L 3.944496154785156 12.26741027832031 L 2.993816375732422 11.32734966278076 C 1.067007064819336 9.422039985656738 1.067007064819336 6.332929611206055 2.993816375732422 4.427629470825195 C 3.957225799560547 3.4749755859375 5.219926834106445 2.998647689819336 6.482625007629395 2.998647689819336 C 7.74532413482666 2.998647689819336 9.008021354675293 3.4749755859375 9.971426010131836 4.427629470825195 L 10.92210578918457 5.36768913269043 L 11.87277603149414 4.427629470825195 C 12.83605098724365 3.474660873413086 14.09881591796875 2.998174667358398 15.36158180236816 2.998174667358398 Z" stroke="none"/>
  </g>
</svg>
