<svg id="search-by-brand_ic" xmlns="http://www.w3.org/2000/svg" width="18.927" height="18.927" viewBox="0 0 18.927 18.927">
  <path id="Path_2025" data-name="Path 2025" d="M18.614,3.4a.7.7,0,0,0-.208-.52L16.117.587a.754.754,0,0,0-1.041,0L.208,15.456a.755.755,0,0,0,0,1.041L2.5,18.786a.706.706,0,0,0,.52.208.7.7,0,0,0,.52-.208L18.407,3.917A.706.706,0,0,0,18.614,3.4ZM13.446,6.785,12.209,5.547,15.6,2.16,16.834,3.4Z" transform="translate(0 -0.067)"/>
  <path id="Path_2026" data-name="Path 2026" d="M2.9,2.96l.347-1.133L4.379,1.48,3.246,1.133,2.9,0,2.552,1.133,1.419,1.48l1.133.347Z" transform="translate(-0.251 0)"/>
  <path id="Path_2027" data-name="Path 2027" d="M6.383,4.553l.694,2.266L7.77,4.553l2.266-.694L7.77,3.165,7.076.9,6.383,3.165l-2.266.694Z" transform="translate(-0.729 -0.159)"/>
  <path id="Path_2028" data-name="Path 2028" d="M21.23,10.125l-.347-1.133-.347,1.133-1.133.347,1.133.347.347,1.133.347-1.133,1.133-.347Z" transform="translate(-3.436 -1.592)"/>
  <path id="Path_2029" data-name="Path 2029" d="M11.891,2.96l.347-1.133,1.133-.347-1.133-.347L11.891,0l-.347,1.133-1.133.347,1.133.347Z" transform="translate(-1.844 0)"/>
</svg>
