<svg xmlns="http://www.w3.org/2000/svg" width="14.89" height="18.04" viewBox="0 0 14.89 18.04">
  <g id="seat-heat_ic" transform="translate(0 0)">
    <g id="climatization" transform="translate(6.68 6.829)">
      <g id="Group_2072" data-name="Group 2072" transform="translate(0 0)">
        <g id="Group_2071" data-name="Group 2071">
          <path id="Path_1936" data-name="Path 1936" d="M82.228,160.779a5.114,5.114,0,0,0,.434-2.036l.125.125a.41.41,0,1,0,.581-.58l-.821-.821a.41.41,0,0,0-.58,0l-.821.821a.41.41,0,1,0,.58.58l.111-.111a4.428,4.428,0,0,1-.372,1.721c-.049.122-.1.246-.145.377l-2.06.171c.031-.081.061-.163.093-.243a5.12,5.12,0,0,0,.436-2.039l.125.125a.41.41,0,0,0,.581-.58l-.821-.821a.41.41,0,0,0-.58,0l-.821.821a.41.41,0,0,0,.58.58l.111-.111a4.428,4.428,0,0,1-.372,1.721c-.078.2-.33,1.227-.4,1.454L76.3,161.27c.055-.169.114-.33.177-.488a5.119,5.119,0,0,0,.436-2.039l.125.125a.41.41,0,0,0,.581-.58l-.821-.821a.41.41,0,0,0-.58,0l-.821.821a.41.41,0,0,0,.58.58l.111-.111a4.428,4.428,0,0,1-.372,1.721,6.268,6.268,0,0,0-.294.866,6.92,6.92,0,0,0,.526,4.213,2.974,2.974,0,0,1,.15.765s0,.084,0,.467a.411.411,0,1,0,.821,0,13.871,13.871,0,0,0-.38-2.053l2.282.821a4.487,4.487,0,0,1,.15,1.232.411.411,0,1,0,.821,0,13.87,13.87,0,0,0-.38-2.053c1.969-.1,0,0,1.956-.089a9.709,9.709,0,0,1,.476,2.141.411.411,0,1,0,.821,0,5.114,5.114,0,0,0-.239-1.664,6.8,6.8,0,0,1-.462-2.008A8.063,8.063,0,0,1,82.228,160.779Zm-5.688,3.956-.06-.152a4.382,4.382,0,0,1-.381-1.9,5.637,5.637,0,0,1,.03-.583l.174-.829,1.889.661a6.506,6.506,0,0,0-.041.751,9.442,9.442,0,0,0,.671,2.874Zm2.874,0a6.618,6.618,0,0,1-.442-2.053c0-.329.251-1.424.288-1.657l2.06-.171a18.076,18.076,0,0,0-.295,1.828,5.278,5.278,0,0,0,.345,1.964Z" transform="translate(-75.277 -157.346)"/>
        </g>
      </g>
    </g>
    <path id="Path_1933" data-name="Path 1933" d="M41.742,55.055a2.62,2.62,0,0,0-2.1-.6l-3.855.592-1.094-4.58a6.266,6.266,0,0,0-3.526-4.259,2,2,0,0,0,.775-2.167l-.455-1.635a2,2,0,0,0-2.463-1.39,1.205,1.205,0,0,0-.839,1.482l1.085,3.9c.005.019,2.111,8.81,2.111,8.81a1.821,1.821,0,0,0,.334,1.912v.255a1.612,1.612,0,0,0,1.611,1.609h7.725a1.612,1.612,0,0,0,1.611-1.609v-.333A2.612,2.612,0,0,0,41.742,55.055ZM29.254,41.866a1.117,1.117,0,0,1,1.375.776l.455,1.635a1.116,1.116,0,0,1-.777,1.373l-.31.086-.967-3.474A.322.322,0,0,1,29.254,41.866Zm3.053,6.161a5.365,5.365,0,0,1,1.52,2.644l1.078,4.51-.144.022a1.83,1.83,0,0,0-2.681-.843l-1.8-7.553A5.381,5.381,0,0,1,32.308,48.027ZM32.122,55.9a.947.947,0,1,1,.947.946A.947.947,0,0,1,32.122,55.9Zm9.65,1.476a.728.728,0,0,1-.728.726H33.319a.728.728,0,0,1-.659-.421,1.83,1.83,0,0,0,2.231-1.6l4.88-.749a1.736,1.736,0,0,1,2,1.714v.333Z" transform="translate(-28.134 -40.943)"/>
  </g>
</svg>
