<svg xmlns="http://www.w3.org/2000/svg" width="18.973" height="22" viewBox="0 0 18.973 22">
  <g id="selected-airbag_ic" transform="translate(-1.513)">
    <path id="Path_2195" data-name="Path 2195" d="M16.422,17.689a2.868,2.868,0,0,0-2.306-.658l-4.224.65-1.2-5.027A6.873,6.873,0,0,0,4.83,7.98,2.2,2.2,0,0,0,5.678,5.6l-.5-1.795a2.194,2.194,0,0,0-2.7-1.525,1.323,1.323,0,0,0-.919,1.627L2.75,8.188c.006.02,2.313,9.669,2.313,9.669a2,2,0,0,0,.366,2.1v.28A1.767,1.767,0,0,0,7.194,22h8.465a1.767,1.767,0,0,0,1.765-1.765v-.366A2.868,2.868,0,0,0,16.422,17.689ZM2.74,3.216a1.223,1.223,0,0,1,1.506.851l.5,1.795a1.225,1.225,0,0,1-.851,1.506l-.34.094L2.495,3.65A.353.353,0,0,1,2.74,3.216ZM6.086,9.977a5.89,5.89,0,0,1,1.665,2.9l1.181,4.95-.157.024a2,2,0,0,0-2.938-.925L3.86,8.639A5.9,5.9,0,0,1,6.086,9.977Zm-.2,8.638A1.038,1.038,0,1,1,6.92,19.653,1.039,1.039,0,0,1,5.882,18.615Zm10.574,1.62a.8.8,0,0,1-.8.8H7.194a.8.8,0,0,1-.722-.462,2,2,0,0,0,2.444-1.76l5.347-.822a1.9,1.9,0,0,1,2.193,1.881v.366Z" fill="#10a8e5"/>
    <path id="Path_2196" data-name="Path 2196" d="M20.328,7.9,19.4,4.129A5.422,5.422,0,1,0,8.87,6.716L9.8,10.491a5.428,5.428,0,0,0,5.256,4.131,5.46,5.46,0,0,0,1.3-.159A5.422,5.422,0,0,0,20.328,7.9Zm-1.456,3.6a4.454,4.454,0,0,1-8.135-1.245L9.81,6.485A4.454,4.454,0,1,1,18.46,4.36l.927,3.775A4.425,4.425,0,0,1,18.872,11.5Z" fill="#10a8e5"/>
  </g>
</svg>
