<svg id="selected-led-lights_ic" xmlns="http://www.w3.org/2000/svg" width="22" height="22" viewBox="0 0 22 22">
  <path id="Path_2104" data-name="Path 2104" d="M18.992,0H3.008A3.011,3.011,0,0,0,0,3.008V13.836a3.011,3.011,0,0,0,3.008,3.008H7.563v3.008a.43.43,0,0,0,.43.43H9.711V21.57a.43.43,0,0,0,.43.43h1.719a.43.43,0,0,0,.43-.43V20.281h1.719a.43.43,0,0,0,.43-.43V16.844h4.555A3.011,3.011,0,0,0,22,13.836V3.008A3.011,3.011,0,0,0,18.992,0ZM11.43,21.141H10.57v-.859h.859ZM13.578,17.7h-.859a.43.43,0,0,0,0,.859h.859v.859H8.422v-.859h.859a.43.43,0,0,0,0-.859H8.422v-.859h5.156Zm7.563-3.867a2.151,2.151,0,0,1-2.148,2.148H3.008A2.151,2.151,0,0,1,.859,13.836V3.008A2.151,2.151,0,0,1,3.008.859H18.992a2.151,2.151,0,0,1,2.148,2.148Zm0,0" fill="#10a8e5"/>
  <path id="Path_2105" data-name="Path 2105" d="M18.992,1.719H3.008A1.29,1.29,0,0,0,1.719,3.008V13.836a1.29,1.29,0,0,0,1.289,1.289H18.992a1.29,1.29,0,0,0,1.289-1.289V3.008A1.29,1.29,0,0,0,18.992,1.719Zm.43,12.117a.43.43,0,0,1-.43.43H3.008a.43.43,0,0,1-.43-.43V3.008a.43.43,0,0,1,.43-.43H18.992a.43.43,0,0,1,.43.43Zm0,0" fill="#10a8e5"/>
  <path id="Path_2106" data-name="Path 2106" d="M11,18.563a.43.43,0,1,0-.43-.43A.43.43,0,0,0,11,18.563Zm0,0" fill="#10a8e5"/>
  <path id="Path_2107" data-name="Path 2107" d="M5.65,12.289a.43.43,0,1,0,.43.43A.43.43,0,0,0,5.65,12.289Zm0,0" fill="#10a8e5"/>
  <path id="Path_2108" data-name="Path 2108" d="M11,12.289a.43.43,0,1,0,.43.43A.43.43,0,0,0,11,12.289Zm0,0" fill="#10a8e5"/>
  <path id="Path_2109" data-name="Path 2109" d="M9.217,12.289a.43.43,0,1,0,.43.43A.43.43,0,0,0,9.217,12.289Zm0,0" fill="#10a8e5"/>
  <path id="Path_2110" data-name="Path 2110" d="M12.783,12.289a.43.43,0,1,0,.43.43A.43.43,0,0,0,12.783,12.289Zm0,0" fill="#10a8e5"/>
  <path id="Path_2111" data-name="Path 2111" d="M14.566,12.289a.43.43,0,1,0,.43.43A.43.43,0,0,0,14.566,12.289Zm0,0" fill="#10a8e5"/>
  <path id="Path_2112" data-name="Path 2112" d="M16.35,12.289a.43.43,0,1,0,.43.43A.43.43,0,0,0,16.35,12.289Zm0,0" fill="#10a8e5"/>
  <path id="Path_2113" data-name="Path 2113" d="M7.434,12.289a.43.43,0,1,0,.43.43A.43.43,0,0,0,7.434,12.289Zm0,0" fill="#10a8e5"/>
  <path id="Path_2114" data-name="Path 2114" d="M5.65,10.57a.43.43,0,1,0,.43.43A.43.43,0,0,0,5.65,10.57Zm0,0" fill="#10a8e5"/>
  <path id="Path_2115" data-name="Path 2115" d="M7.434,10.57a.43.43,0,1,0,.43.43A.43.43,0,0,0,7.434,10.57Zm0,0" fill="#10a8e5"/>
  <path id="Path_2116" data-name="Path 2116" d="M14.566,10.57A.43.43,0,1,0,15,11,.43.43,0,0,0,14.566,10.57Zm0,0" fill="#10a8e5"/>
  <path id="Path_2117" data-name="Path 2117" d="M16.35,10.57a.43.43,0,1,0,.43.43A.43.43,0,0,0,16.35,10.57Zm0,0" fill="#10a8e5"/>
  <path id="Path_2118" data-name="Path 2118" d="M12.783,10.57a.43.43,0,1,0,.43.43A.43.43,0,0,0,12.783,10.57Zm0,0" fill="#10a8e5"/>
  <path id="Path_2119" data-name="Path 2119" d="M11,10.57a.43.43,0,1,0,.43.43A.43.43,0,0,0,11,10.57Zm0,0" fill="#10a8e5"/>
  <path id="Path_2120" data-name="Path 2120" d="M9.217,10.57a.43.43,0,1,0,.43.43A.43.43,0,0,0,9.217,10.57Zm0,0" fill="#10a8e5"/>
  <path id="Path_2121" data-name="Path 2121" d="M5.65,8.852a.43.43,0,1,0,.43.43A.43.43,0,0,0,5.65,8.852Zm0,0" fill="#10a8e5"/>
  <path id="Path_2122" data-name="Path 2122" d="M14.566,8.852a.43.43,0,1,0,.43.43A.43.43,0,0,0,14.566,8.852Zm0,0" fill="#10a8e5"/>
  <path id="Path_2123" data-name="Path 2123" d="M11,8.852a.43.43,0,1,0,.43.43A.43.43,0,0,0,11,8.852Zm0,0" fill="#10a8e5"/>
  <path id="Path_2124" data-name="Path 2124" d="M7.434,8.852a.43.43,0,1,0,.43.43A.43.43,0,0,0,7.434,8.852Zm0,0" fill="#10a8e5"/>
  <path id="Path_2125" data-name="Path 2125" d="M12.783,8.852a.43.43,0,1,0,.43.43A.43.43,0,0,0,12.783,8.852Zm0,0" fill="#10a8e5"/>
  <path id="Path_2126" data-name="Path 2126" d="M9.217,8.852a.43.43,0,1,0,.43.43A.43.43,0,0,0,9.217,8.852Zm0,0" fill="#10a8e5"/>
  <path id="Path_2127" data-name="Path 2127" d="M16.35,8.852a.43.43,0,1,0,.43.43A.43.43,0,0,0,16.35,8.852Zm0,0" fill="#10a8e5"/>
  <path id="Path_2128" data-name="Path 2128" d="M5.65,7.133a.43.43,0,1,0,.43.43A.43.43,0,0,0,5.65,7.133Zm0,0" fill="#10a8e5"/>
  <path id="Path_2129" data-name="Path 2129" d="M16.35,7.133a.43.43,0,1,0,.43.43A.43.43,0,0,0,16.35,7.133Zm0,0" fill="#10a8e5"/>
  <path id="Path_2130" data-name="Path 2130" d="M12.783,7.133a.43.43,0,1,0,.43.43A.43.43,0,0,0,12.783,7.133Zm0,0" fill="#10a8e5"/>
  <path id="Path_2131" data-name="Path 2131" d="M11,7.133a.43.43,0,1,0,.43.43A.43.43,0,0,0,11,7.133Zm0,0" fill="#10a8e5"/>
  <path id="Path_2132" data-name="Path 2132" d="M7.434,7.133a.43.43,0,1,0,.43.43A.43.43,0,0,0,7.434,7.133Zm0,0" fill="#10a8e5"/>
  <path id="Path_2133" data-name="Path 2133" d="M9.217,7.133a.43.43,0,1,0,.43.43A.43.43,0,0,0,9.217,7.133Zm0,0" fill="#10a8e5"/>
  <path id="Path_2134" data-name="Path 2134" d="M14.566,7.133a.43.43,0,1,0,.43.43A.43.43,0,0,0,14.566,7.133Zm0,0" fill="#10a8e5"/>
  <path id="Path_2135" data-name="Path 2135" d="M5.65,5.414a.43.43,0,1,0,.43.43A.43.43,0,0,0,5.65,5.414Zm0,0" fill="#10a8e5"/>
  <path id="Path_2136" data-name="Path 2136" d="M12.783,5.414a.43.43,0,1,0,.43.43A.43.43,0,0,0,12.783,5.414Zm0,0" fill="#10a8e5"/>
  <path id="Path_2137" data-name="Path 2137" d="M14.566,5.414a.43.43,0,1,0,.43.43A.43.43,0,0,0,14.566,5.414Zm0,0" fill="#10a8e5"/>
  <path id="Path_2138" data-name="Path 2138" d="M11,5.414a.43.43,0,1,0,.43.43A.43.43,0,0,0,11,5.414Zm0,0" fill="#10a8e5"/>
  <path id="Path_2139" data-name="Path 2139" d="M9.217,5.414a.43.43,0,1,0,.43.43A.43.43,0,0,0,9.217,5.414Zm0,0" fill="#10a8e5"/>
  <path id="Path_2140" data-name="Path 2140" d="M7.434,5.414a.43.43,0,1,0,.43.43A.43.43,0,0,0,7.434,5.414Zm0,0" fill="#10a8e5"/>
  <path id="Path_2141" data-name="Path 2141" d="M16.35,5.414a.43.43,0,1,0,.43.43A.43.43,0,0,0,16.35,5.414Zm0,0" fill="#10a8e5"/>
  <path id="Path_2142" data-name="Path 2142" d="M5.65,3.7a.43.43,0,1,0,.43.43A.43.43,0,0,0,5.65,3.7Zm0,0" fill="#10a8e5"/>
  <path id="Path_2143" data-name="Path 2143" d="M9.217,3.7a.43.43,0,1,0,.43.43A.43.43,0,0,0,9.217,3.7Zm0,0" fill="#10a8e5"/>
  <path id="Path_2144" data-name="Path 2144" d="M7.434,3.7a.43.43,0,1,0,.43.43A.43.43,0,0,0,7.434,3.7Zm0,0" fill="#10a8e5"/>
  <path id="Path_2145" data-name="Path 2145" d="M12.783,3.7a.43.43,0,1,0,.43.43A.43.43,0,0,0,12.783,3.7Zm0,0" fill="#10a8e5"/>
  <path id="Path_2146" data-name="Path 2146" d="M11,3.7a.43.43,0,1,0,.43.43A.43.43,0,0,0,11,3.7Zm0,0" fill="#10a8e5"/>
  <path id="Path_2147" data-name="Path 2147" d="M14.566,3.7a.43.43,0,1,0,.43.43A.43.43,0,0,0,14.566,3.7Zm0,0" fill="#10a8e5"/>
  <path id="Path_2148" data-name="Path 2148" d="M16.35,3.7a.43.43,0,1,0,.43.43A.43.43,0,0,0,16.35,3.7Zm0,0" fill="#10a8e5"/>
  <path id="Path_2149" data-name="Path 2149" d="M3.889,12.289a.43.43,0,1,0,.43.43A.43.43,0,0,0,3.889,12.289Zm0,0" fill="#10a8e5"/>
  <path id="Path_2150" data-name="Path 2150" d="M3.889,10.57a.43.43,0,1,0,.43.43A.43.43,0,0,0,3.889,10.57Zm0,0" fill="#10a8e5"/>
  <path id="Path_2151" data-name="Path 2151" d="M3.889,8.852a.43.43,0,1,0,.43.43A.43.43,0,0,0,3.889,8.852Zm0,0" fill="#10a8e5"/>
  <path id="Path_2152" data-name="Path 2152" d="M3.889,7.133a.43.43,0,1,0,.43.43A.43.43,0,0,0,3.889,7.133Zm0,0" fill="#10a8e5"/>
  <path id="Path_2153" data-name="Path 2153" d="M3.889,5.414a.43.43,0,1,0,.43.43A.43.43,0,0,0,3.889,5.414Zm0,0" fill="#10a8e5"/>
  <path id="Path_2154" data-name="Path 2154" d="M3.889,3.7a.43.43,0,1,0,.43.43A.43.43,0,0,0,3.889,3.7Zm0,0" fill="#10a8e5"/>
  <path id="Path_2155" data-name="Path 2155" d="M18.076,12.289a.43.43,0,1,0,.43.43A.43.43,0,0,0,18.076,12.289Zm0,0" fill="#10a8e5"/>
  <path id="Path_2156" data-name="Path 2156" d="M18.076,10.57a.43.43,0,1,0,.43.43A.43.43,0,0,0,18.076,10.57Zm0,0" fill="#10a8e5"/>
  <path id="Path_2157" data-name="Path 2157" d="M18.076,8.852a.43.43,0,1,0,.43.43A.43.43,0,0,0,18.076,8.852Zm0,0" fill="#10a8e5"/>
  <path id="Path_2158" data-name="Path 2158" d="M18.076,7.133a.43.43,0,1,0,.43.43A.43.43,0,0,0,18.076,7.133Zm0,0" fill="#10a8e5"/>
  <path id="Path_2159" data-name="Path 2159" d="M18.076,5.414a.43.43,0,1,0,.43.43A.43.43,0,0,0,18.076,5.414Zm0,0" fill="#10a8e5"/>
  <path id="Path_2160" data-name="Path 2160" d="M18.076,3.7a.43.43,0,1,0,.43.43A.43.43,0,0,0,18.076,3.7Zm0,0" fill="#10a8e5"/>
</svg>
