<svg xmlns="http://www.w3.org/2000/svg" width="22" height="22" viewBox="0 0 22 22">
  <g id="selected-rear-view-camera_ic" transform="translate(0)">
    <path id="Shape" d="M19.477,16.32a1.833,1.833,0,0,0,1.056-1.654V3.3A1.833,1.833,0,0,0,18.7,1.467H13.933V.733A.733.733,0,0,0,13.2,0H8.8a.733.733,0,0,0-.733.733v.733H3.3A1.833,1.833,0,0,0,1.467,3.3V14.667A1.833,1.833,0,0,0,2.523,16.32l-2.4,4.268A.928.928,0,0,0,0,21.054.95.95,0,0,0,.946,22H21.054A.95.95,0,0,0,22,21.05a.924.924,0,0,0-.121-.462ZM8.8.733h4.4v.733H8.8ZM2.2,14.667V3.3A1.1,1.1,0,0,1,3.3,2.2H18.7a1.1,1.1,0,0,1,1.1,1.1V14.667a1.1,1.1,0,0,1-.682,1.012l-.491-.869a1.1,1.1,0,0,0,.44-.876v-9.9a1.1,1.1,0,0,0-1.1-1.1H4.033a1.1,1.1,0,0,0-1.1,1.1v9.9a1.1,1.1,0,0,0,.44.876l-.491.869A1.1,1.1,0,0,1,2.2,14.667Zm13.933-7.7A.843.843,0,0,1,15.4,6.05a.843.843,0,0,1,.733-.917.843.843,0,0,1,.733.917A.843.843,0,0,1,16.133,6.967Zm.367.675A1.624,1.624,0,0,0,17.6,6.05,1.566,1.566,0,0,0,16.133,4.4a1.566,1.566,0,0,0-1.467,1.65,1.624,1.624,0,0,0,1.1,1.591V9.724L12.36,3.667h5.606a.367.367,0,0,1,.367.367v9.9a.385.385,0,0,1-.073.22L16.5,11.026ZM5.867,6.967a.843.843,0,0,1-.733-.917.843.843,0,0,1,.733-.917A.843.843,0,0,1,6.6,6.05.843.843,0,0,1,5.867,6.967Zm.367.675a1.624,1.624,0,0,0,1.1-1.591A1.566,1.566,0,0,0,5.867,4.4,1.566,1.566,0,0,0,4.4,6.05,1.624,1.624,0,0,0,5.5,7.641v3.384L3.74,14.153a.385.385,0,0,1-.073-.22v-9.9a.367.367,0,0,1,.367-.367H9.64L6.233,9.724ZM21.054,21.267H.946a.213.213,0,0,1-.213-.216.249.249,0,0,1,.026-.1l9.72-17.281h1.041l9.72,17.281a.253.253,0,0,1,.026.106A.213.213,0,0,1,21.054,21.267Z" fill="#10a8e5"/>
    <path id="Shape-2" data-name="Shape" d="M11,4.767a.367.367,0,0,0-.367.367V5.5a.367.367,0,0,0,.733,0V5.133A.367.367,0,0,0,11,4.767Z" fill="#10a8e5"/>
    <path id="Shape-3" data-name="Shape" d="M11,6.6a.367.367,0,0,0-.367.367V7.7a.367.367,0,0,0,.733,0V6.967A.367.367,0,0,0,11,6.6Z" fill="#10a8e5"/>
    <path id="Shape-4" data-name="Shape" d="M11,8.8a.367.367,0,0,0-.367.367v1.1a.367.367,0,1,0,.733,0v-1.1A.367.367,0,0,0,11,8.8Z" fill="#10a8e5"/>
    <path id="Shape-5" data-name="Shape" d="M11,11.733a.367.367,0,0,0-.367.367v2.933a.367.367,0,1,0,.733,0V12.1A.367.367,0,0,0,11,11.733Z" fill="#10a8e5"/>
    <path id="Shape-6" data-name="Shape" d="M11,16.5a.367.367,0,0,0-.367.367v3.3a.367.367,0,1,0,.733,0v-3.3A.367.367,0,0,0,11,16.5Z" fill="#10a8e5"/>
  </g>
</svg>
