<svg id="selected-navigation_ic" xmlns="http://www.w3.org/2000/svg" width="22" height="21.267" viewBox="0 0 22 21.267">
  <g id="_006---GPS-Tracking" data-name="006---GPS-Tracking">
    <path id="Shape" d="M20.533,8.067H17.518c1.016-1.308,2.282-3.183,2.282-4.4a3.667,3.667,0,0,0-7.333,0c0,1.217,1.267,3.092,2.282,4.4H6.431c.954-1.275,2-2.926,2-4.033a3.667,3.667,0,1,0-7.333,0c0,1.107,1.049,2.759,2,4.033H1.467A1.467,1.467,0,0,0,0,9.533V19.8a1.467,1.467,0,0,0,1.467,1.467H20.533A1.467,1.467,0,0,0,22,19.8V9.533A1.467,1.467,0,0,0,20.533,8.067ZM16.133.733a2.937,2.937,0,0,1,2.933,2.933c0,1.1-1.516,3.277-2.931,4.942C14.716,6.943,13.2,4.77,13.2,3.667A2.937,2.937,0,0,1,16.133.733ZM4.767,1.1A2.937,2.937,0,0,1,7.7,4.033c0,.933-1.085,2.631-2.276,4.141-.217.275-.437.545-.656.8C3.35,7.31,1.833,5.137,1.833,4.033A2.937,2.937,0,0,1,4.767,1.1ZM.733,11.846l.5.47a.736.736,0,0,1,.232.535v3.63a.733.733,0,0,1-.232.535l-.5.47Zm0,7.954V18.492l1-.94a1.471,1.471,0,0,0,.464-1.07v-3.63a1.471,1.471,0,0,0-.464-1.07l-1-.94V9.533A.733.733,0,0,1,1.467,8.8H3.672c.2.251.387.474.538.651a.731.731,0,0,0,1.114,0c.151-.177.336-.4.538-.651h9.477l.239.285a.731.731,0,0,0,1.114,0c.073-.085.153-.183.239-.285H18.7a.733.733,0,0,1,.733.733V19.8a.733.733,0,0,1-.733.733H1.467A.733.733,0,0,1,.733,19.8Zm20.533,0a.733.733,0,0,1-.733.733h-.571a1.452,1.452,0,0,0,.2-.733V9.533a1.452,1.452,0,0,0-.2-.733h.571a.733.733,0,0,1,.733.733Z" fill="#10a8e5"/>
    <path id="Shape-2" data-name="Shape" d="M11.05,13.757a1.547,1.547,0,0,0,.325.129,1.388,1.388,0,0,0,.358.047A1.467,1.467,0,0,0,13.2,12.478l.826-.206.826-.206a1.49,1.49,0,0,0,.527.554,1.434,1.434,0,0,0,.754.213,1.467,1.467,0,1,0-1.467-1.478l-.826.206-.826.206a1.49,1.49,0,0,0-.527-.554A1.434,1.434,0,0,0,11.733,11a1.467,1.467,0,0,0-1.467,1.467,1.444,1.444,0,0,0,.063.423,1.482,1.482,0,0,0,.176.375L9.445,14.421,8.383,15.577a1.373,1.373,0,0,0-1.067-.119L6.552,14.12l-.763-1.338a1.486,1.486,0,0,0,.324-.47,1.511,1.511,0,1,0-.963.831l.763,1.338.763,1.338a1.467,1.467,0,1,0,2.489,1.048,1.444,1.444,0,0,0-.063-.424,1.482,1.482,0,0,0-.176-.375l1.062-1.156ZM4.033,11.733a.733.733,0,1,1,.215.518.733.733,0,0,1-.215-.518Zm12.1-1.1a.733.733,0,1,1-.518.215.733.733,0,0,1,.518-.215Zm-4.4,1.1a.733.733,0,1,1-.518.215.733.733,0,0,1,.518-.215ZM7.7,17.6a.733.733,0,1,1,.518-.215A.733.733,0,0,1,7.7,17.6Z" fill="#10a8e5"/>
    <path id="Shape-3" data-name="Shape" d="M12.833,15.4a.367.367,0,1,0,0,.733H13.2a.367.367,0,0,0,0-.733Z" fill="#10a8e5"/>
    <path id="Shape-4" data-name="Shape" d="M17.6,15.4H14.667a.367.367,0,1,0,0,.733H17.6a.367.367,0,1,0,0-.733Z" fill="#10a8e5"/>
    <path id="Shape-5" data-name="Shape" d="M12.467,17.233a.367.367,0,0,0-.367-.367h-.733a.367.367,0,0,0,0,.733H12.1A.367.367,0,0,0,12.467,17.233Z" fill="#10a8e5"/>
    <path id="Shape-6" data-name="Shape" d="M17.6,16.867H13.567a.367.367,0,0,0,0,.733H17.6a.367.367,0,0,0,0-.733Z" fill="#10a8e5"/>
    <path id="Shape-7" data-name="Shape" d="M17.6,18.333H12.467a.367.367,0,0,0,0,.733H17.6a.367.367,0,0,0,0-.733Z" fill="#10a8e5"/>
    <path id="Shape-8" data-name="Shape" d="M17.967,3.667A1.833,1.833,0,1,0,16.133,5.5,1.833,1.833,0,0,0,17.967,3.667Zm-1.833,1.1a1.1,1.1,0,1,1,.778-.322A1.1,1.1,0,0,1,16.133,4.767Z" fill="#10a8e5"/>
    <path id="Shape-9" data-name="Shape" d="M6.6,4.033A1.833,1.833,0,1,0,4.767,5.867,1.833,1.833,0,0,0,6.6,4.033Zm-1.833,1.1a1.1,1.1,0,1,1,.778-.322A1.1,1.1,0,0,1,4.767,5.133Z" fill="#10a8e5"/>
  </g>
</svg>
