<svg xmlns="http://www.w3.org/2000/svg" width="22" height="17.416" viewBox="0 0 22 17.416">
  <g id="selected-touch-screen_ic" transform="translate(0 -2.292)">
    <g id="Group_2224" data-name="Group 2224">
      <g id="Group_2223" data-name="Group 2223">
        <g id="Group_2222" data-name="Group 2222">
          <path id="Path_2100" data-name="Path 2100" d="M20.689,9.84,17.242,6.053a1.787,1.787,0,0,0-2.481.006,1.714,1.714,0,0,0-.443.757,1.788,1.788,0,0,0-2.307.159,1.738,1.738,0,0,0-.445.756,1.788,1.788,0,0,0-2.305.16,1.74,1.74,0,0,0-.44.74L7.2,7.007A1.755,1.755,0,0,0,4.714,9.488l6.24,6.24-3.7.581A2.053,2.053,0,0,0,5.5,18.333a1.377,1.377,0,0,0,1.375,1.375h8.643a5.016,5.016,0,0,0,3.567-1.478l1.441-1.442a5.035,5.035,0,0,0,.164-6.949Zm-.813,6.3-1.441,1.442a4.1,4.1,0,0,1-2.918,1.208H6.875a.459.459,0,0,1-.458-.458,1.136,1.136,0,0,1,.973-1.117l4.6-.722a.458.458,0,0,0,.253-.776L5.362,8.84A.838.838,0,0,1,6.548,7.655L9.24,10.346l.022.022,1.874,1.873a.458.458,0,1,0,.648-.648L9.894,9.7a.839.839,0,0,1,.021-1.17.855.855,0,0,1,1.179,0l.9.9.016.016.957.956a.458.458,0,0,0,.648-.648l-.968-.967a.84.84,0,0,1,.017-1.175.855.855,0,0,1,1.179,0l.957.961,0,0h0l0,0h0a.458.458,0,0,0,.637-.659l-.055-.055a.838.838,0,0,1,.02-1.171.868.868,0,0,1,1.164-.016l3.432,3.772a4.118,4.118,0,0,1-.134,5.684Z" fill="#10a8e5"/>
          <path id="Path_2101" data-name="Path 2101" d="M14.806,8.583h0Z" fill="#10a8e5"/>
        </g>
      </g>
    </g>
    <g id="Group_2226" data-name="Group 2226">
      <g id="Group_2225" data-name="Group 2225">
        <path id="Path_2102" data-name="Path 2102" d="M9.714,6.558a4.121,4.121,0,1,0-5.448,5.448.459.459,0,0,0,.378-.836A3.2,3.2,0,1,1,8.878,6.935a.458.458,0,0,0,.836-.377Z" fill="#10a8e5"/>
      </g>
    </g>
    <g id="Group_2228" data-name="Group 2228">
      <g id="Group_2227" data-name="Group 2227">
        <path id="Path_2103" data-name="Path 2103" d="M11.71,6.718A5.955,5.955,0,1,0,4.427,14a.435.435,0,0,0,.117.016.458.458,0,0,0,.117-.9,5.038,5.038,0,1,1,6.162-6.162.455.455,0,0,0,.561.325A.459.459,0,0,0,11.71,6.718Z" fill="#10a8e5"/>
      </g>
    </g>
  </g>
</svg>
