<svg xmlns="http://www.w3.org/2000/svg" width="22" height="20.628" viewBox="0 0 22 20.628">
  <path id="selected-ac_ic" d="M21.546,4.047H20.523V3.89a.454.454,0,0,0-.454-.454H17.721a.454.454,0,0,0-.454.454v.157h-3.7L12.609,1.6l.086-.034a.454.454,0,1,0-.332-.846l-5.335,2.1a.454.454,0,1,0,.332.846l.085-.034.189.48a8.633,8.633,0,1,0,9.633,8.575,8.545,8.545,0,0,0-.639-3.268h.639V9.57a.454.454,0,0,0,.454.454h2.348a.454.454,0,0,0,.454-.454V9.413h1.022A.454.454,0,0,0,22,8.959V4.5A.454.454,0,0,0,21.546,4.047ZM8.291,3.293l3.472-1.364.832,2.118H8.587ZM8.633,8.5h0a4.184,4.184,0,1,0,2.6.909h4.4a7.639,7.639,0,0,1,.724,3.268A7.724,7.724,0,1,1,8.633,4.956h8.633V8.5Zm.97,4.177a.97.97,0,1,1-.97-.97A.972.972,0,0,1,9.6,12.681Zm-.516-1.823V9.445a3.238,3.238,0,0,1,.77.207l-.706,1.223Zm-.909,0-.064.017L7.409,9.652a3.238,3.238,0,0,1,.77-.207v1.412Zm-1.556-.75.706,1.223-.046.046L6.06,10.67A3.3,3.3,0,0,1,6.623,10.107ZM5.6,11.457l1.223.706c-.006.021-.012.042-.017.064H5.4A3.24,3.24,0,0,1,5.6,11.457ZM6.81,13.135c.005.021.011.042.017.064L5.6,13.9a3.242,3.242,0,0,1-.207-.77Zm.473.85.046.046-.706,1.223a3.3,3.3,0,0,1-.563-.563Zm.833.5.064.017v1.412a3.237,3.237,0,0,1-.77-.207Zm.972.017.064-.017.706,1.223a3.237,3.237,0,0,1-.77.207Zm1.556.75-.706-1.223.046-.046,1.223.706A3.3,3.3,0,0,1,10.644,15.254ZM11.662,13.9,10.439,13.2c.006-.021.012-.042.017-.064h1.412A3.24,3.24,0,0,1,11.662,13.9Zm-1.206-1.679c-.005-.021-.011-.043-.017-.064l1.223-.706a3.24,3.24,0,0,1,.207.77Zm-.473-.85-.046-.046.706-1.223a3.3,3.3,0,0,1,.563.563Zm9.63-2.261H18.175V4.345h1.439ZM21.091,8.5h-.568V4.956h.568Z" transform="translate(0 -0.686)" fill="#10a8e5"/>
</svg>
