<svg xmlns="http://www.w3.org/2000/svg" width="13.062" height="22" viewBox="0 0 13.062 22">
  <path id="selected-bluetooth_ic" d="M12.77,5.2a.55.55,0,0,0-.244-.409L5.445.092A.546.546,0,0,0,4.6.55V8.645L.654,4.856a.55.55,0,1,0-.785.771l.023.022,4.7,4.522v1.658l-4.7,4.522a.55.55,0,1,0,.763.793L4.6,13.355V21.45a.546.546,0,0,0,.849.458l7.081-4.7a.55.55,0,0,0,.077-.855L7.04,11,12.6,5.649A.549.549,0,0,0,12.77,5.2ZM11.35,16.669,5.7,20.424V12.3l.554-.534Zm-5.1-6.432L5.7,9.7V1.575l5.655,3.756Zm0,0" transform="translate(0.29)" fill="#10a8e5"/>
</svg>
