<svg xmlns="http://www.w3.org/2000/svg" width="22" height="12.785" viewBox="0 0 22 12.785">
  <g id="selected-electric-mirrors_ic" transform="translate(0 -4.607)">
    <path id="Path_2197" data-name="Path 2197" d="M19.647,9.653a4.463,4.463,0,0,0-1.613-2.3,4.6,4.6,0,0,0-2.744-.895H9.5a5.009,5.009,0,0,0-5,5v1.923a2.167,2.167,0,0,0,2.165,2.165H16.42A3.75,3.75,0,0,0,19.392,14.1a3.647,3.647,0,0,0,.6-3.3Zm-.968,3.9a2.848,2.848,0,0,1-2.26,1.095H12.629l2.5-3.962a.448.448,0,1,0-.758-.479l-2.808,4.441H10.327l.447-.707a.448.448,0,1,0-.758-.479l-.75,1.186h-2.6A1.27,1.27,0,0,1,5.4,13.381V11.457A4.111,4.111,0,0,1,9.5,7.351H13.88l-2.954,4.674a.448.448,0,1,0,.758.479l3.257-5.153h.35a3.821,3.821,0,0,1,.833.093l-.862,1.363a.448.448,0,1,0,.758.479l.969-1.533a3.47,3.47,0,0,1,.508.315,3.572,3.572,0,0,1,1.291,1.845l.345,1.147A2.76,2.76,0,0,1,18.68,13.555Z" fill="#10a8e5"/>
    <path id="Path_2198" data-name="Path 2198" d="M21.761,10.268l-.345-1.147a6.341,6.341,0,0,0-6.072-4.514H9.5a6.858,6.858,0,0,0-6.85,6.85v1.114H.448A.448.448,0,0,0,0,13.02v3.924a.448.448,0,0,0,.448.448H16.465a5.53,5.53,0,0,0,5.3-7.124Zm-1.577,4.358A4.592,4.592,0,0,1,16.465,16.5H.9V13.468H3.1a.448.448,0,0,0,.448-.448V11.457A5.96,5.96,0,0,1,9.5,5.5h5.839a5.445,5.445,0,0,1,5.214,3.875l.345,1.147A4.592,4.592,0,0,1,20.184,14.627Z" fill="#10a8e5"/>
  </g>
</svg>
