<svg id="setting_ic" xmlns="http://www.w3.org/2000/svg" width="18.551" height="19.073" viewBox="0 0 18.551 19.073">
  <path id="Path_2022" data-name="Path 2022" d="M14.251,11.6a2.725,2.725,0,1,0,2.725,2.725A2.733,2.733,0,0,0,14.251,11.6ZM21.4,14.328a6.9,6.9,0,0,1-.068.926l2.016,1.58a.481.481,0,0,1,.109.613l-1.907,3.3a.482.482,0,0,1-.586.2L18.6,20a7.306,7.306,0,0,1-1.608.94l-.354,2.52a.494.494,0,0,1-.477.409H12.343a.5.5,0,0,1-.477-.4l-.354-2.52a7.005,7.005,0,0,1-1.608-.94l-2.37.954a.482.482,0,0,1-.586-.2l-1.907-3.3a.481.481,0,0,1,.109-.613l2.016-1.58a7.271,7.271,0,0,1-.068-.94,6.9,6.9,0,0,1,.068-.926L5.15,11.821a.481.481,0,0,1-.109-.613l1.907-3.3a.482.482,0,0,1,.586-.2l2.37.954a7.306,7.306,0,0,1,1.608-.94l.354-2.52a.494.494,0,0,1,.477-.409h3.815a.5.5,0,0,1,.477.4l.354,2.52a7.005,7.005,0,0,1,1.608.94l2.37-.954a.482.482,0,0,1,.586.2l1.907,3.3a.481.481,0,0,1-.109.613l-2.016,1.58a7.271,7.271,0,0,1,.068.94Z" transform="translate(-4.975 -4.792)"/>
</svg>
