<svg id="signaling_ic" xmlns="http://www.w3.org/2000/svg" width="23" height="13.483" viewBox="0 0 23 13.483">
  <path id="Path_2002" data-name="Path 2002" d="M17.969,10.84H18.1a.467.467,0,0,0,0-.934h-.593l-.2-.434a1.443,1.443,0,0,0-.984-.8,14.875,14.875,0,0,0-3.523,0,1.442,1.442,0,0,0-.984.8l-.2.434h-.593a.467.467,0,1,0,0,.934h.131l-.334.334a1.157,1.157,0,0,0-.326.976l.13.913a1.237,1.237,0,0,0,.325.673v.383a.467.467,0,0,0,.467.467h1.34a.467.467,0,0,0,.466-.454H15.9a.467.467,0,0,0,.466.454h1.34a.467.467,0,0,0,.467-.467v-.383a1.238,1.238,0,0,0,.325-.673l.13-.913a1.157,1.157,0,0,0-.326-.976ZM11.859,13.2a.312.312,0,0,1-.308-.267l-.054-.381h.786a.467.467,0,0,0,0-.934H11.7l.161-.161h5.4l.161.161h-.577a.467.467,0,1,0,0,.934h.78l-.054.381a.312.312,0,0,1-.308.267H11.859ZM13.01,9.58a14.688,14.688,0,0,1,3.106,0,.5.5,0,0,1,.343.28l.3.663h-4.4l.3-.663A.5.5,0,0,1,13.01,9.58Z" transform="translate(0 -4.758)"/>
  <path id="Path_2003" data-name="Path 2003" d="M15.445,12.14H13.681a.467.467,0,0,0,0,.934h1.765a.467.467,0,1,0,0-.934Z" transform="translate(0 -4.758)"/>
  <path id="Path_2004" data-name="Path 2004" d="M20.234,4.758H6.632a2.322,2.322,0,0,0-2.281,1.89H1.592A1.594,1.594,0,0,0,0,8.24V9.491a1.594,1.594,0,0,0,1.592,1.592H3.829l-.26,2.234a4.415,4.415,0,0,0,4.386,4.925H20.234A2.769,2.769,0,0,0,23,15.475V7.525A2.769,2.769,0,0,0,20.234,4.758ZM1.592,10.149a.659.659,0,0,1-.658-.658V8.24a.659.659,0,0,1,.658-.658H4.236l-.3,2.567Zm20.474,5.326a1.835,1.835,0,0,1-1.832,1.832H7.955A3.482,3.482,0,0,1,4.5,13.424l.756-6.5A1.389,1.389,0,0,1,6.632,5.692h13.6a1.834,1.834,0,0,1,1.832,1.832Z" transform="translate(0 -4.758)"/>
  <path id="Path_2005" data-name="Path 2005" d="M19.277,6.885H10.115A1.6,1.6,0,0,0,8.53,8.3l-.7,6.037a1.6,1.6,0,0,0,1.586,1.781h9.863a1.6,1.6,0,0,0,1.6-1.6V8.482A1.6,1.6,0,0,0,19.277,6.885Zm.663,7.633a.663.663,0,0,1-.663.663H9.414a.663.663,0,0,1-.658-.739l.7-6.037a.663.663,0,0,1,.658-.586h9.161a.663.663,0,0,1,.663.663v6.037Z" transform="translate(0 -4.758)"/>
  <path id="Path_2006" data-name="Path 2006" d="M6.692,9.916A1.245,1.245,0,1,0,5.447,8.671,1.246,1.246,0,0,0,6.692,9.916Zm0-1.556a.311.311,0,1,1-.311.311A.312.312,0,0,1,6.692,8.36Z" transform="translate(0 -4.758)"/>
  <path id="Path_2007" data-name="Path 2007" d="M6.36,10.616A1.245,1.245,0,1,0,7.6,11.861,1.246,1.246,0,0,0,6.36,10.616Zm0,1.556a.311.311,0,1,1,.311-.311A.312.312,0,0,1,6.36,12.172Z" transform="translate(0 -4.758)"/>
</svg>
