<svg id="tank_ic" xmlns="http://www.w3.org/2000/svg" width="23" height="19.589" viewBox="0 0 23 19.589">
  <path id="Path_554" data-name="Path 554" d="M20.4,5.828H8.49V4.721a.524.524,0,0,0,.39-.507V2.23a.525.525,0,0,0-.525-.525H2.739a.525.525,0,0,0-.525.525V4.214a.524.524,0,0,0,.39.507V5.828H2.6A2.6,2.6,0,0,0,0,8.425V18.7a2.6,2.6,0,0,0,2.6,2.6H20.4A2.6,2.6,0,0,0,23,18.7V8.425A2.6,2.6,0,0,0,20.4,5.828ZM3.263,2.755H7.832v.934H3.263Zm.39,1.983H7.441v1.09H3.654ZM21.951,18.7A1.549,1.549,0,0,1,20.4,20.245H2.6A1.549,1.549,0,0,1,1.049,18.7V8.425A1.549,1.549,0,0,1,2.6,6.878H20.4a1.549,1.549,0,0,1,1.547,1.547Z" transform="translate(0 -1.706)"/>
  <path id="Path_555" data-name="Path 555" d="M21.09,11.474a5.025,5.025,0,0,0-3.5,0,3.975,3.975,0,0,1-2.77,0,5.024,5.024,0,0,0-3.5,0l0,0a3.975,3.975,0,0,1-2.765,0,5.025,5.025,0,0,0-3.5,0,3.974,3.974,0,0,1-2.77,0,.525.525,0,1,0-.366.984,5.024,5.024,0,0,0,3.5,0,3.975,3.975,0,0,1,2.77,0,5.024,5.024,0,0,0,3.5,0l0,0a3.974,3.974,0,0,1,2.765,0,5.025,5.025,0,0,0,3.5,0,3.975,3.975,0,0,1,2.769,0,.525.525,0,0,0,.366-.984Z" transform="translate(0 -1.706)"/>
</svg>
