<svg id="trans_ic" xmlns="http://www.w3.org/2000/svg" width="26.381" height="19.305" viewBox="0 0 26.381 19.305">
  <path id="Path_514" data-name="Path 514" d="M24.151,75.316a2.232,2.232,0,0,1-2.23-2.23V67.893H19.074v5.193a2.23,2.23,0,0,1-4.46,0V67.893H11.767v5.193a2.23,2.23,0,0,1-4.46,0V67.893H2.23A2.232,2.232,0,0,1,0,65.664V58.241a2.23,2.23,0,1,1,4.46,0v5.193H7.307V58.241a2.23,2.23,0,1,1,4.46,0v5.193h2.847V58.241a2.23,2.23,0,1,1,4.46,0v5.193h2.847V58.241a2.23,2.23,0,1,1,4.46,0V73.086A2.233,2.233,0,0,1,24.151,75.316Zm-5.646-8.56H22.49a.568.568,0,0,1,.568.568v5.761a1.093,1.093,0,1,0,2.186,0V58.241a1.093,1.093,0,1,0-2.186,0V64a.568.568,0,0,1-.568.568H18.506A.568.568,0,0,1,17.937,64V58.241a1.093,1.093,0,1,0-2.186,0V64a.568.568,0,0,1-.568.568H11.2A.568.568,0,0,1,10.63,64V58.241a1.093,1.093,0,1,0-2.186,0V64a.568.568,0,0,1-.568.568H3.891A.568.568,0,0,1,3.323,64V58.241a1.093,1.093,0,1,0-2.186,0v7.423A1.094,1.094,0,0,0,2.23,66.756H7.876a.568.568,0,0,1,.568.568v5.761a1.093,1.093,0,1,0,2.186,0V67.325a.568.568,0,0,1,.568-.568h3.984a.568.568,0,0,1,.568.568v5.761a1.093,1.093,0,1,0,2.186,0V67.325A.568.568,0,0,1,18.506,66.756Z" transform="translate(0 -56.011)"/>
</svg>
