<svg xmlns="http://www.w3.org/2000/svg" width="20.141" height="19.084" viewBox="0 0 20.141 19.084">
  <path id="upword_ic" d="M18.686,8.784l-8-8A1.519,1.519,0,0,0,9.57.331,1.454,1.454,0,0,0,8.465.786l-8,8a1.557,1.557,0,0,0,0,2.224l.921.921a1.461,1.461,0,0,0,1.106.467A1.461,1.461,0,0,0,3.6,11.929l3.612-3.6v8.649a1.31,1.31,0,0,0,.461,1.038,1.64,1.64,0,0,0,1.112.4h1.573a1.64,1.64,0,0,0,1.112-.4,1.31,1.31,0,0,0,.461-1.038V8.329l3.612,3.6a1.46,1.46,0,0,0,1.106.467,1.525,1.525,0,0,0,1.118-.467l.921-.921a1.587,1.587,0,0,0,0-2.224Z" transform="translate(0.5 0.169)" fill="red" stroke="#fff" stroke-width="1"/>
</svg>
