<svg id="wheels_ic" xmlns="http://www.w3.org/2000/svg" width="23" height="23" viewBox="0 0 23 23">
  <path id="Path_550" data-name="Path 550" d="M19.632,3.368A11.5,11.5,0,0,0,3.368,19.632,11.5,11.5,0,0,0,19.632,3.368ZM11.5,22.09A10.59,10.59,0,1,1,22.09,11.5,10.6,10.6,0,0,1,11.5,22.09Z"/>
  <path id="Path_551" data-name="Path 551" d="M11.5,2.88a8.62,8.62,0,1,0,8.62,8.62A8.63,8.63,0,0,0,11.5,2.88Zm0,16.33a7.71,7.71,0,1,1,7.71-7.71A7.719,7.719,0,0,1,11.5,19.21Z"/>
  <path id="Path_552" data-name="Path 552" d="M13.1,11.5a1.6,1.6,0,1,0-1.6,1.6A1.6,1.6,0,0,0,13.1,11.5Zm-2.29,0a.69.69,0,1,1,.69.69A.69.69,0,0,1,10.81,11.5Z"/>
  <path id="Path_553" data-name="Path 553" d="M11.5,4.445A7.055,7.055,0,1,0,18.555,11.5,7.063,7.063,0,0,0,11.5,4.445ZM17.645,11.5a6.121,6.121,0,0,1-.3,1.9l-2.489-1.636a.316.316,0,0,1,0-.528L17.343,9.6A6.118,6.118,0,0,1,17.645,11.5Zm-1.58-4.109L13.406,8.727a.316.316,0,0,1-.457-.264l-.173-2.974A6.146,6.146,0,0,1,16.065,7.391Zm-5.841-1.9-.173,2.974a.316.316,0,0,1-.457.264L6.935,7.391A6.147,6.147,0,0,1,10.224,5.489ZM5.355,11.5a6.121,6.121,0,0,1,.3-1.9l2.489,1.636a.316.316,0,0,1,0,.528L5.657,13.4A6.12,6.12,0,0,1,5.355,11.5Zm1.58,4.109,2.659-1.336a.316.316,0,0,1,.457.264l.173,2.974A6.146,6.146,0,0,1,6.935,15.609Zm4.208,2.025-.183-3.149A1.226,1.226,0,0,0,9.185,13.46L6.368,14.875a6.145,6.145,0,0,1-.358-.618l2.636-1.733a1.226,1.226,0,0,0,0-2.05L6.01,8.742a6.16,6.16,0,0,1,.358-.618L9.185,9.541A1.226,1.226,0,0,0,10.96,8.516l.183-3.15c.118-.007.237-.011.357-.011s.239,0,.357.011l.183,3.149A1.226,1.226,0,0,0,13.814,9.54l2.818-1.415a6.151,6.151,0,0,1,.358.618l-2.636,1.733a1.226,1.226,0,0,0,0,2.05l2.636,1.733a6.153,6.153,0,0,1-.358.618l-2.818-1.416a1.226,1.226,0,0,0-1.775,1.025l-.183,3.15c-.118.007-.237.011-.357.011S11.261,17.641,11.143,17.634Zm1.633-.123.173-2.974a.316.316,0,0,1,.457-.264l2.659,1.336A6.147,6.147,0,0,1,12.776,17.511Z"/>
</svg>
