<svg xmlns="http://www.w3.org/2000/svg" width="22" height="12.547" viewBox="0 0 22 12.547">
  <g id="xenon-lights_ic" transform="translate(0 -4.727)">
    <path id="Path_2074" data-name="Path 2074" d="M8.747,4.727H5.911a5.911,5.911,0,1,0,0,11.821H8.747a.448.448,0,0,0,.432-.328,20.849,20.849,0,0,0,0-11.165A.448.448,0,0,0,8.747,4.727ZM.9,10.637A5.02,5.02,0,0,1,5.911,5.623h.6a19.942,19.942,0,0,1,.641,5.014,19.944,19.944,0,0,1-.641,5.015h-.6A5.02,5.02,0,0,1,.9,10.637ZM8.4,15.652H7.439a20.839,20.839,0,0,0,.613-5.015,20.836,20.836,0,0,0-.613-5.014H8.4A19.954,19.954,0,0,1,8.4,15.652Z"/>
    <path id="Path_2075" data-name="Path 2075" d="M10.937,7.141,21.458,9.395a.448.448,0,1,0,.188-.876L11.125,6.265a.448.448,0,0,0-.188.876Z"/>
    <path id="Path_2076" data-name="Path 2076" d="M21.646,11.141,11.124,8.888a.448.448,0,0,0-.188.876l10.521,2.254a.448.448,0,1,0,.188-.876Z"/>
    <path id="Path_2077" data-name="Path 2077" d="M21.646,13.764,11.124,11.51a.448.448,0,0,0-.188.876l10.521,2.254a.448.448,0,1,0,.188-.876Z"/>
    <path id="Path_2078" data-name="Path 2078" d="M21.646,16.387,11.124,14.133a.448.448,0,0,0-.188.876l10.521,2.254a.448.448,0,1,0,.188-.876Z"/>
  </g>
</svg>
