<svg xmlns="http://www.w3.org/2000/svg" width="24.93" height="14.218" viewBox="0 0 24.93 14.218">
  <g id="xenon_ic" transform="translate(-23.885 -94.241)">
    <g id="headlight" transform="translate(23.885 94.241)">
      <path id="Path_2009" data-name="Path 2009" d="M9.912,4.941H6.7a6.7,6.7,0,1,0,0,13.4H9.912a.508.508,0,0,0,.489-.372,23.626,23.626,0,0,0,0-12.652A.508.508,0,0,0,9.912,4.941Zm-8.9,6.7A5.689,5.689,0,0,1,6.7,5.957h.685a22.6,22.6,0,0,1,.726,5.682,22.6,22.6,0,0,1-.726,5.682H6.7A5.689,5.689,0,0,1,1.016,11.639Zm8.507,5.682H8.43a23.614,23.614,0,0,0,.695-5.682A23.611,23.611,0,0,0,8.43,5.957H9.523A22.612,22.612,0,0,1,9.523,17.322Z" transform="translate(0 -4.941)"/>
      <path id="Path_2010" data-name="Path 2010" d="M11.465,7.543,23.387,10.1A.508.508,0,1,0,23.6,9.1L11.678,6.55a.508.508,0,0,0-.213.993Z" transform="translate(0.928 -4.807)"/>
      <path id="Path_2011" data-name="Path 2011" d="M23.6,11.846,11.678,9.292a.508.508,0,0,0-.213.993l11.922,2.554a.508.508,0,1,0,.213-.993Z" transform="translate(0.928 -4.577)"/>
      <path id="Path_2012" data-name="Path 2012" d="M23.6,14.588,11.678,12.035a.508.508,0,0,0-.213.993l11.922,2.554a.508.508,0,1,0,.213-.993Z" transform="translate(0.928 -4.347)"/>
      <path id="Path_2013" data-name="Path 2013" d="M23.6,17.331,11.678,14.777a.508.508,0,0,0-.213.993l11.922,2.554a.508.508,0,1,0,.213-.993Z" transform="translate(0.928 -4.117)"/>
    </g>
  </g>
</svg>
